<?xml version="1.0" encoding="utf-8"?>
<!-- Generator: Adobe Illustrator 27.9.0, SVG Export Plug-In . SVG Version: 6.00 Build 0)  -->
<!DOCTYPE svg PUBLIC "-//W3C//DTD SVG 1.1//EN" "http://www.w3.org/Graphics/SVG/1.1/DTD/svg11.dtd" [
	<!ENTITY ns_flows "http://ns.adobe.com/Flows/1.0/">
	<!ENTITY ns_extend "http://ns.adobe.com/Extensibility/1.0/">
	<!ENTITY ns_ai "http://ns.adobe.com/AdobeIllustrator/10.0/">
	<!ENTITY ns_graphs "http://ns.adobe.com/Graphs/1.0/">
	<!ENTITY ns_vars "http://ns.adobe.com/Variables/1.0/">
	<!ENTITY ns_imrep "http://ns.adobe.com/ImageReplacement/1.0/">
	<!ENTITY ns_sfw "http://ns.adobe.com/SaveForWeb/1.0/">
	<!ENTITY ns_custom "http://ns.adobe.com/GenericCustomNamespace/1.0/">
	<!ENTITY ns_adobe_xpath "http://ns.adobe.com/XPath/1.0/">
]>
<svg version="1.1" xmlns:x="&ns_extend;" xmlns:i="&ns_ai;" xmlns:graph="&ns_graphs;"
	 xmlns="http://www.w3.org/2000/svg" xmlns:xlink="http://www.w3.org/1999/xlink" xmlns:a="http://ns.adobe.com/AdobeSVGViewerExtensions/3.0/"
	 x="0px" y="0px" width="1000px" height="700px" viewBox="0 0 1000 700" enable-background="new 0 0 1000 700" xml:space="preserve"
	>
<metadata>
	<sfw  xmlns="&ns_sfw;">
		<slices></slices>
		<sliceSourceBounds  bottomLeftOrigin="true" height="6605.589" width="8291" x="-2000" y="947.804"></sliceSourceBounds>
	</sfw>
</metadata>
<g id="FILL-BACKGROUND">
	<rect fill="#FFFFFF" width="1000" height="700"/>
</g>
<g id="N-DIMENSIONS">
</g>
<g id="N-TEXT">
</g>
<g id="_x32_D_x24_AG-DIAGRAM">
</g>
<g id="_x32_D_x24_AG-DETAILS-DIAGRAM">
</g>
<g id="_x32_D_x24_AG-DETAILS">
	<g id="POLYLINE_00000114042670204909055090000017323163446398862253_">
		
			<line fill="none" stroke="#F368E0" stroke-width="2" stroke-linecap="round" stroke-linejoin="round" stroke-miterlimit="10" x1="605.554" y1="584.94" x2="605.554" y2="572.266"/>
	</g>
	<g id="POLYLINE_00000113325973624799409380000011767278317806403720_">
		
			<line fill="none" stroke="#F368E0" stroke-width="2" stroke-linecap="round" stroke-linejoin="round" stroke-miterlimit="10" x1="745.227" y1="565.208" x2="745.227" y2="559.542"/>
	</g>
	<g id="POLYLINE_00000075124895325609543860000014768623099882898092_">
		
			<line fill="none" stroke="#F368E0" stroke-width="2" stroke-linecap="round" stroke-linejoin="round" stroke-miterlimit="10" x1="690.945" y1="573.427" x2="690.945" y2="564.488"/>
	</g>
	<g id="POLYLINE_00000147219388420742852360000009123701477954035633_">
		
			<line fill="none" stroke="#F368E0" stroke-width="2" stroke-linecap="round" stroke-linejoin="round" stroke-miterlimit="10" x1="799.21" y1="557.035" x2="799.21" y2="552.705"/>
	</g>
	<g id="POLYLINE_00000060748191896761149100000016844785279250075838_">
		
			<line fill="none" stroke="#F368E0" stroke-width="2" stroke-linecap="round" stroke-linejoin="round" stroke-miterlimit="10" x1="853.012" y1="548.889" x2="853.012" y2="545.891"/>
	</g>
	<g id="POLYLINE_00000095325792478059298010000016652608433670666423_">
		
			<line fill="none" stroke="#F368E0" stroke-width="2" stroke-linecap="round" stroke-linejoin="round" stroke-miterlimit="10" x1="637.705" y1="581.488" x2="637.705" y2="569.338"/>
	</g>
	<g id="POLYLINE_00000179637698402288827710000014638972421574295454_">
		
			<line fill="none" stroke="#F368E0" stroke-width="2" stroke-linecap="round" stroke-linejoin="round" stroke-miterlimit="10" x1="561.832" y1="598.946" x2="561.832" y2="576.248"/>
	</g>
	<g id="POLYLINE_00000021098984023655481600000004739943491764002971_">
		
			<line fill="none" stroke="#F368E0" stroke-width="2" stroke-linecap="round" stroke-linejoin="round" stroke-miterlimit="10" x1="423.252" y1="584.94" x2="423.252" y2="572.266"/>
	</g>
	<g id="POLYLINE_00000088105242970769196980000015674777849816377987_">
		
			<line fill="none" stroke="#F368E0" stroke-width="2" stroke-linecap="round" stroke-linejoin="round" stroke-miterlimit="10" x1="283.579" y1="565.208" x2="283.579" y2="559.542"/>
	</g>
	<g id="POLYLINE_00000165943400147737254800000008592761720021797294_">
		
			<line fill="none" stroke="#F368E0" stroke-width="2" stroke-linecap="round" stroke-linejoin="round" stroke-miterlimit="10" x1="337.86" y1="573.427" x2="337.86" y2="564.488"/>
	</g>
	<g id="POLYLINE_00000020400323489311733260000005083183120743479944_">
		
			<line fill="none" stroke="#F368E0" stroke-width="2" stroke-linecap="round" stroke-linejoin="round" stroke-miterlimit="10" x1="229.595" y1="557.035" x2="229.595" y2="552.705"/>
	</g>
	<g id="POLYLINE_00000046314481038150149800000007474006351606908288_">
		
			<line fill="none" stroke="#F368E0" stroke-width="2" stroke-linecap="round" stroke-linejoin="round" stroke-miterlimit="10" x1="175.794" y1="548.889" x2="175.794" y2="545.891"/>
	</g>
	<g id="POLYLINE_00000122722441786688441020000004114243963999919760_">
		
			<line fill="none" stroke="#F368E0" stroke-width="2" stroke-linecap="round" stroke-linejoin="round" stroke-miterlimit="10" x1="391.101" y1="581.488" x2="391.101" y2="569.338"/>
	</g>
	<g id="POLYLINE_00000005977458661021716560000006734130799680930223_">
		
			<line fill="none" stroke="#F368E0" stroke-width="2" stroke-linecap="round" stroke-linejoin="round" stroke-miterlimit="10" x1="466.973" y1="598.946" x2="466.973" y2="576.248"/>
	</g>
	<g id="POLYLINE_00000180363596583882959070000005019214133722023296_">
		<path fill="none" stroke="#F368E0" stroke-width="2" stroke-linecap="round" stroke-linejoin="round" stroke-miterlimit="10" d="
			M554.815,579.97c-0.82,0.075-1.701,0.165-2.524,0.165c-0.376-0.004-0.76-0.01-1.128-0.092c-0.177-0.04-0.354-0.1-0.505-0.204
			c-0.153-0.104-0.274-0.255-0.327-0.434c-0.053-0.171-0.055-0.354-0.041-0.532c0.016-0.195,0.052-0.4,0.092-0.592
			c0.201-0.92,0.536-2.097,0.691-3.016c0.444-2.413,0.586-4.912,0.59-7.363c-0.007-2.676-0.221-5.391-0.746-8.016
			c-0.895-4.542-2.59-8.943-4.954-12.923c-0.983-1.664-2.087-3.317-3.328-4.8c-0.177-0.231-0.366-0.472-0.477-0.743
			c-0.025-0.066-0.045-0.135-0.045-0.206c0-0.045,0.009-0.091,0.031-0.131c0.026-0.049,0.068-0.089,0.114-0.12
			c0.154-0.102,0.34-0.143,0.516-0.19c0.324-0.068,0.664-0.174,0.997-0.18c0.532-0.024,1.056,0.165,1.491,0.464
			c0.445,0.308,0.819,0.714,1.171,1.121c0.791,0.931,1.526,2.007,2.212,3.02c1.904,2.811,3.601,5.816,4.824,8.989
			c1.763,4.508,2.691,9.33,2.966,14.155"/>
	</g>
	<g id="POLYLINE_00000167381196824595746860000000182526293514045842_">
		<path fill="none" stroke="#F368E0" stroke-width="2" stroke-linecap="round" stroke-linejoin="round" stroke-miterlimit="10" d="
			M473.99,579.97c0.82,0.075,1.701,0.165,2.524,0.165c0.376-0.004,0.761-0.01,1.128-0.092c0.177-0.04,0.354-0.1,0.505-0.204
			c0.153-0.104,0.274-0.255,0.327-0.434c0.053-0.171,0.055-0.354,0.041-0.532c-0.016-0.195-0.052-0.4-0.092-0.592
			c-0.201-0.92-0.536-2.097-0.691-3.016c-0.444-2.413-0.586-4.912-0.59-7.363c0.007-2.676,0.221-5.391,0.746-8.016
			c0.895-4.542,2.59-8.943,4.954-12.923c0.983-1.664,2.087-3.317,3.328-4.8c0.177-0.231,0.366-0.472,0.477-0.743
			c0.025-0.066,0.045-0.135,0.045-0.206c0-0.045-0.009-0.091-0.031-0.131c-0.026-0.049-0.068-0.089-0.114-0.12
			c-0.154-0.102-0.34-0.143-0.516-0.19c-0.324-0.068-0.664-0.174-0.997-0.18c-0.532-0.024-1.056,0.165-1.491,0.464
			c-0.445,0.308-0.819,0.714-1.171,1.121c-0.791,0.931-1.526,2.007-2.212,3.02c-1.904,2.811-3.601,5.816-4.824,8.989
			c-1.764,4.508-2.691,9.33-2.966,14.155"/>
	</g>
	<g id="POLYLINE_00000004546052289626468100000015528814069996373666_">
		
			<polyline fill="none" stroke="#F368E0" stroke-width="2" stroke-linecap="round" stroke-linejoin="round" stroke-miterlimit="10" points="
			72.928,206.983 83.152,207.275 120.073,228.748 		"/>
	</g>
	<g id="POLYLINE_00000112611291161490679720000006137581968043597239_">
		
			<polyline fill="none" stroke="#F368E0" stroke-width="2" stroke-linecap="round" stroke-linejoin="round" stroke-miterlimit="10" points="
			70.083,75.678 90.5,75.678 92.805,81.181 87.079,83.859 139.567,212.811 		"/>
	</g>
	<g id="POLYLINE_00000026139418109165234180000015545150893130845351_">
		<path fill="none" stroke="#F368E0" stroke-width="2" stroke-linecap="round" stroke-linejoin="round" stroke-miterlimit="10" d="
			M237.799,222.788c0.001-0.383-0.163-0.763-0.443-1.024c-0.266-0.252-0.634-0.392-1.001-0.381l-13.555,0.36
			c-0.047,0.002-0.099,0.005-0.146,0.011c-0.193,0.025-0.382,0.092-0.548,0.193c-0.215,0.131-0.395,0.321-0.512,0.544
			c-0.095,0.18-0.15,0.381-0.161,0.583c-0.024,0.118,0.012,37.92-0.001,38.056c0.004,0.105,0.019,0.212,0.047,0.313
			c0.095,0.362,0.343,0.682,0.67,0.864c0.22,0.124,0.474,0.187,0.726,0.18l13.555-0.36c0.03-0.003,0.068-0.001,0.097-0.006
			c0.145-0.014,0.29-0.051,0.423-0.109c0.261-0.113,0.487-0.307,0.637-0.549c0.09-0.145,0.153-0.307,0.186-0.474
			c0.015-0.079,0.024-0.162,0.025-0.242C237.807,260.744,237.794,222.799,237.799,222.788z"/>
	</g>
	<g id="POLYLINE_00000109006976172663867030000007749906926840100257_">
		<path fill="none" stroke="#F368E0" stroke-width="2" stroke-linecap="round" stroke-linejoin="round" stroke-miterlimit="10" d="
			M835.179,222.788c0.001-0.383-0.163-0.763-0.443-1.024c-0.266-0.252-0.634-0.392-1.001-0.381l-13.555,0.36
			c-0.047,0.002-0.099,0.005-0.146,0.011c-0.193,0.025-0.382,0.092-0.548,0.193c-0.215,0.131-0.395,0.321-0.512,0.544
			c-0.095,0.18-0.15,0.381-0.161,0.583c-0.024,0.118,0.012,37.92-0.001,38.056c0.004,0.105,0.019,0.212,0.047,0.313
			c0.095,0.362,0.343,0.682,0.67,0.864c0.22,0.124,0.474,0.187,0.726,0.18l13.555-0.36c0.03-0.003,0.068-0.001,0.097-0.006
			c0.145-0.014,0.29-0.051,0.423-0.109c0.261-0.113,0.487-0.307,0.637-0.549c0.09-0.145,0.153-0.307,0.186-0.474
			c0.015-0.079,0.024-0.162,0.025-0.242C835.187,260.744,835.174,222.799,835.179,222.788z"/>
	</g>
	<g id="POLYLINE_00000039853659765531132510000017305725380706521495_">
		
			<line fill="none" stroke="#F368E0" stroke-width="2" stroke-linecap="round" stroke-linejoin="round" stroke-miterlimit="10" x1="909.54" y1="246.666" x2="909.54" y2="280.429"/>
	</g>
	<g id="POLYLINE_00000033334876847345224810000013721078793871481271_">
		
			<polyline fill="none" stroke="#F368E0" stroke-width="2" stroke-linecap="round" stroke-linejoin="round" stroke-miterlimit="10" points="
			454.447,240.38 453.308,243.066 556.338,271.563 		"/>
	</g>
	<g id="POLYLINE_00000103956125144728069180000011733814864030835079_">
		
			<polyline fill="none" stroke="#F368E0" stroke-width="2" stroke-linecap="round" stroke-linejoin="round" stroke-miterlimit="10" points="
			415.635,243.076 425.436,242.306 455.376,255.536 		"/>
	</g>
	<g id="POLYLINE_00000127037284854856684590000016541467009580594867_">
		
			<line fill="none" stroke="#F368E0" stroke-width="2" stroke-linecap="round" stroke-linejoin="round" stroke-miterlimit="10" x1="636.117" y1="272.425" x2="635.597" y2="310.536"/>
	</g>
	<g id="POLYLINE_00000155863866606487375150000005011089324855279254_">
		<path fill="none" stroke="#F368E0" stroke-width="2" stroke-linecap="round" stroke-linejoin="round" stroke-miterlimit="10" d="
			M554.706,254.469c-0.514,0.004-1.012-0.302-1.239-0.763c-0.09-0.178-0.14-0.376-0.147-0.575
			c-0.02-0.016,0.013-18.145-0.001-18.172c0-0.063,0.005-0.129,0.013-0.191c0.031-0.221,0.116-0.435,0.246-0.616
			c0.24-0.339,0.64-0.558,1.056-0.577c0.022,0.001,0.05-0.003,0.072-0.002l7.267,0c0.055,0,0.113,0.003,0.167,0.01
			c0.206,0.025,0.406,0.097,0.581,0.209c0.29,0.184,0.506,0.48,0.593,0.813c0.026,0.1,0.042,0.204,0.045,0.307
			c0.02,0.016-0.013,18.145,0.001,18.172c0.005,0.557-0.353,1.086-0.873,1.288c-0.111,0.044-0.229,0.074-0.347,0.089
			c-0.054,0.006-0.112,0.01-0.167,0.01H554.706z"/>
	</g>
	<g id="POLYLINE_00000165916427933164645640000001174623251059437983_">
		<path fill="none" stroke="#F368E0" stroke-width="2" stroke-linecap="round" stroke-linejoin="round" stroke-miterlimit="10" d="
			M538.214,254.469c-0.514,0.004-1.012-0.302-1.239-0.763c-0.09-0.178-0.14-0.376-0.147-0.575
			c-0.02-0.016,0.013-18.145-0.001-18.172c0-0.063,0.005-0.129,0.013-0.191c0.031-0.221,0.116-0.435,0.246-0.616
			c0.24-0.339,0.64-0.558,1.056-0.577c0.022,0.001,0.05-0.003,0.072-0.002l7.267,0c0.055,0,0.113,0.003,0.167,0.01
			c0.206,0.025,0.406,0.097,0.581,0.209c0.29,0.184,0.506,0.48,0.593,0.813c0.026,0.1,0.042,0.204,0.045,0.307
			c0.02,0.016-0.013,18.145,0.001,18.172c0.005,0.557-0.353,1.086-0.873,1.288c-0.111,0.044-0.229,0.074-0.347,0.089
			c-0.054,0.006-0.112,0.01-0.167,0.01H538.214z"/>
	</g>
	<g id="POLYLINE_00000146498660667708994560000010606108720710416048_">
		<path fill="none" stroke="#F368E0" stroke-width="2" stroke-linecap="round" stroke-linejoin="round" stroke-miterlimit="10" d="
			M794.943,245.55c-0.556,0.006-1.087-0.354-1.288-0.873c-0.05-0.126-0.082-0.26-0.094-0.394c-0.003-0.038-0.005-0.081-0.005-0.12
			v-5.668c-0.005-0.583,0.386-1.13,0.94-1.313c0.128-0.044,0.264-0.068,0.399-0.073c0.012,0.001,0.036-0.002,0.048-0.001
			c0,0,2.984,0,2.984,0c0.03,0,0.066,0.001,0.096,0.003c0.03,0.003,0.066,0.005,0.095,0.01c0.615,0.08,1.116,0.59,1.186,1.206
			c0.006,0.054,0.01,0.112,0.01,0.167c-0.007,0.031,0.005,5.664,0,5.692c-0.002,0.119-0.02,0.24-0.052,0.354
			c-0.111,0.401-0.413,0.742-0.798,0.901c-0.132,0.055-0.274,0.09-0.417,0.103c-0.038,0.003-0.081,0.005-0.12,0.005
			C797.927,245.55,794.943,245.55,794.943,245.55z"/>
	</g>
	<g id="POLYLINE_00000065764914655737682370000006932821557877409460_">
		<path fill="none" stroke="#F368E0" stroke-width="2" stroke-linecap="round" stroke-linejoin="round" stroke-miterlimit="10" d="
			M783.467,245.55c-0.556,0.006-1.087-0.354-1.288-0.873c-0.05-0.126-0.082-0.26-0.094-0.394c-0.003-0.038-0.005-0.081-0.005-0.12
			c0,0,0-5.668,0-5.668c-0.005-0.583,0.386-1.13,0.94-1.313c0.128-0.044,0.264-0.068,0.399-0.073
			c0.012,0.001,0.036-0.002,0.048-0.001h2.984c0.03,0,0.066,0.001,0.096,0.003c0.03,0.003,0.066,0.005,0.095,0.01
			c0.615,0.08,1.116,0.59,1.186,1.206c0.006,0.054,0.01,0.112,0.01,0.167c-0.007,0.031,0.005,5.664,0,5.692
			c-0.002,0.119-0.02,0.24-0.052,0.354c-0.111,0.401-0.413,0.742-0.798,0.901c-0.132,0.055-0.274,0.09-0.417,0.103
			c-0.038,0.003-0.081,0.005-0.12,0.005C786.452,245.55,783.467,245.55,783.467,245.55z"/>
	</g>
	<g id="POLYLINE_00000150806614556868090850000015916643883214376877_">
		<path fill="none" stroke="#F368E0" stroke-width="2" stroke-linecap="round" stroke-linejoin="round" stroke-miterlimit="10" d="
			M771.992,245.55c-0.556,0.006-1.087-0.354-1.288-0.873c-0.05-0.126-0.082-0.26-0.094-0.394c-0.003-0.038-0.005-0.081-0.005-0.12
			v-5.668c-0.005-0.583,0.386-1.13,0.94-1.313c0.128-0.044,0.264-0.068,0.399-0.073c0.012,0.001,0.036-0.002,0.048-0.001h2.984
			c0.03,0,0.066,0.001,0.096,0.003c0.03,0.003,0.066,0.005,0.095,0.01c0.615,0.08,1.116,0.59,1.186,1.206
			c0.006,0.054,0.01,0.112,0.01,0.167c-0.007,0.031,0.005,5.664,0,5.692c-0.002,0.119-0.02,0.24-0.052,0.354
			c-0.111,0.401-0.413,0.742-0.798,0.901c-0.132,0.055-0.274,0.09-0.417,0.103c-0.038,0.003-0.081,0.005-0.12,0.005
			C774.976,245.55,771.992,245.55,771.992,245.55z"/>
	</g>
	<g id="POLYLINE_00000021087724372795616860000002512252633599557542_">
		<path fill="none" stroke="#F368E0" stroke-width="2" stroke-linecap="round" stroke-linejoin="round" stroke-miterlimit="10" d="
			M760.517,245.55c-0.556,0.006-1.087-0.354-1.288-0.873c-0.05-0.126-0.082-0.26-0.094-0.394c-0.003-0.038-0.005-0.081-0.005-0.12
			v-5.668c-0.005-0.583,0.386-1.13,0.94-1.313c0.128-0.044,0.264-0.068,0.399-0.073c0.012,0.001,0.036-0.002,0.048-0.001h2.984
			c0.03,0,0.066,0.001,0.096,0.003c0.03,0.003,0.066,0.005,0.095,0.01c0.615,0.08,1.116,0.59,1.186,1.206
			c0.006,0.054,0.01,0.112,0.01,0.167c-0.007,0.031,0.005,5.664,0,5.692c-0.002,0.119-0.02,0.24-0.052,0.354
			c-0.111,0.401-0.413,0.742-0.798,0.901c-0.132,0.055-0.274,0.09-0.417,0.103c-0.038,0.003-0.081,0.005-0.12,0.005
			C763.501,245.55,760.517,245.55,760.517,245.55z"/>
	</g>
	<g id="POLYLINE_00000068647183675540910260000015671795409733294731_">
		<path fill="none" stroke="#F368E0" stroke-width="2" stroke-linecap="round" stroke-linejoin="round" stroke-miterlimit="10" d="
			M749.041,245.55c-0.556,0.006-1.087-0.354-1.288-0.873c-0.05-0.126-0.082-0.26-0.094-0.394c-0.003-0.038-0.005-0.081-0.005-0.12
			v-5.668c-0.005-0.583,0.386-1.13,0.94-1.313c0.128-0.044,0.264-0.068,0.399-0.073c0.012,0.001,0.036-0.002,0.048-0.001
			c0,0,2.984,0,2.984,0c0.03,0,0.066,0.001,0.096,0.003c0.03,0.003,0.066,0.005,0.095,0.01c0.615,0.08,1.116,0.59,1.186,1.206
			c0.006,0.054,0.01,0.112,0.01,0.167c-0.007,0.031,0.005,5.664,0,5.692c-0.002,0.119-0.02,0.24-0.052,0.354
			c-0.111,0.401-0.413,0.742-0.798,0.901c-0.132,0.055-0.274,0.09-0.417,0.103c-0.038,0.003-0.081,0.005-0.12,0.005
			C752.026,245.55,749.041,245.55,749.041,245.55z"/>
	</g>
	<g id="POLYLINE_00000008146048026689512340000015636358328231648663_">
		<path fill="none" stroke="#F368E0" stroke-width="2" stroke-linecap="round" stroke-linejoin="round" stroke-miterlimit="10" d="
			M737.566,245.55c-0.556,0.006-1.087-0.354-1.288-0.873c-0.05-0.126-0.082-0.26-0.094-0.394c-0.003-0.038-0.005-0.081-0.005-0.12
			v-5.668c-0.005-0.583,0.386-1.13,0.94-1.313c0.128-0.044,0.264-0.068,0.399-0.073c0.012,0.001,0.036-0.002,0.048-0.001h2.984
			c0.03,0,0.066,0.001,0.096,0.003c0.03,0.003,0.066,0.005,0.095,0.01c0.615,0.08,1.116,0.59,1.186,1.206
			c0.007,0.054,0.01,0.112,0.01,0.167c-0.007,0.031,0.005,5.664,0,5.692c-0.002,0.119-0.02,0.24-0.052,0.354
			c-0.111,0.401-0.413,0.742-0.798,0.901c-0.132,0.055-0.274,0.09-0.417,0.103c-0.038,0.003-0.081,0.005-0.12,0.005
			C740.55,245.55,737.566,245.55,737.566,245.55z"/>
	</g>
	<g id="POLYLINE_00000176028317398094710800000003455507597916700036_">
		<path fill="none" stroke="#F368E0" stroke-width="2" stroke-linecap="round" stroke-linejoin="round" stroke-miterlimit="10" d="
			M726.09,245.55c-0.556,0.006-1.087-0.354-1.288-0.873c-0.05-0.126-0.082-0.26-0.094-0.394c-0.003-0.038-0.005-0.081-0.005-0.12
			v-5.668c-0.005-0.583,0.386-1.13,0.94-1.313c0.128-0.044,0.264-0.068,0.399-0.073c0.012,0.001,0.036-0.002,0.048-0.001h2.984
			c0.03,0,0.066,0.001,0.096,0.003c0.03,0.003,0.066,0.005,0.095,0.01c0.615,0.08,1.116,0.59,1.186,1.206
			c0.006,0.054,0.01,0.112,0.01,0.167c-0.007,0.031,0.005,5.664,0,5.692c-0.002,0.119-0.02,0.24-0.052,0.354
			c-0.111,0.401-0.413,0.742-0.798,0.901c-0.132,0.055-0.274,0.09-0.417,0.103c-0.038,0.003-0.081,0.005-0.12,0.005
			C729.075,245.55,726.09,245.55,726.09,245.55z"/>
	</g>
	<g id="POLYLINE_00000101805305217693567360000008387818949170689668_">
		<path fill="none" stroke="#F368E0" stroke-width="2" stroke-linecap="round" stroke-linejoin="round" stroke-miterlimit="10" d="
			M714.615,245.55c-0.556,0.006-1.087-0.354-1.288-0.873c-0.05-0.126-0.082-0.26-0.094-0.394c-0.003-0.038-0.005-0.081-0.005-0.12
			v-5.668c-0.005-0.583,0.386-1.13,0.94-1.313c0.128-0.044,0.264-0.068,0.399-0.073c0.012,0.001,0.036-0.002,0.048-0.001h2.984
			c0.03,0,0.066,0.001,0.096,0.003c0.03,0.003,0.066,0.005,0.095,0.01c0.615,0.08,1.116,0.59,1.186,1.206
			c0.006,0.054,0.01,0.112,0.01,0.167c-0.007,0.031,0.005,5.664,0,5.692c-0.002,0.119-0.02,0.24-0.052,0.354
			c-0.111,0.401-0.413,0.742-0.798,0.901c-0.132,0.055-0.274,0.09-0.417,0.103c-0.038,0.003-0.081,0.005-0.12,0.005
			C717.599,245.55,714.615,245.55,714.615,245.55z"/>
	</g>
	<g id="POLYLINE_00000147933293153059805690000007775137943659813267_">
		<path fill="none" stroke="#F368E0" stroke-width="2" stroke-linecap="round" stroke-linejoin="round" stroke-miterlimit="10" d="
			M703.139,245.55c-0.556,0.006-1.087-0.354-1.288-0.873c-0.05-0.126-0.082-0.26-0.094-0.394c-0.003-0.038-0.005-0.081-0.005-0.12
			v-5.668c-0.005-0.583,0.386-1.13,0.94-1.313c0.128-0.044,0.264-0.068,0.399-0.073c0.012,0.001,0.036-0.002,0.048-0.001h2.984
			c0.03,0,0.066,0.001,0.096,0.003c0.03,0.003,0.066,0.005,0.095,0.01c0.615,0.08,1.116,0.59,1.186,1.206
			c0.006,0.054,0.01,0.112,0.01,0.167c-0.007,0.031,0.005,5.664,0,5.692c-0.002,0.119-0.02,0.24-0.052,0.354
			c-0.111,0.401-0.413,0.742-0.798,0.901c-0.132,0.055-0.274,0.09-0.417,0.103c-0.038,0.003-0.081,0.005-0.12,0.005
			C706.124,245.55,703.139,245.55,703.139,245.55z"/>
	</g>
	<g id="POLYLINE_00000060013013398124359570000015809290692108777630_">
		<path fill="none" stroke="#F368E0" stroke-width="2" stroke-linecap="round" stroke-linejoin="round" stroke-miterlimit="10" d="
			M691.664,245.55c-0.556,0.006-1.087-0.354-1.288-0.873c-0.05-0.126-0.082-0.26-0.094-0.394c-0.003-0.038-0.005-0.081-0.005-0.12
			v-5.668c-0.005-0.583,0.386-1.13,0.94-1.313c0.128-0.044,0.264-0.068,0.399-0.073c0.012,0.001,0.036-0.002,0.048-0.001
			c0,0,2.984,0,2.984,0c0.03,0,0.066,0.001,0.096,0.003c0.03,0.003,0.066,0.005,0.095,0.01c0.615,0.08,1.116,0.59,1.186,1.206
			c0.006,0.054,0.01,0.112,0.01,0.167c-0.007,0.031,0.005,5.664,0,5.692c-0.002,0.119-0.02,0.24-0.052,0.354
			c-0.111,0.401-0.413,0.742-0.798,0.901c-0.132,0.055-0.274,0.09-0.417,0.103c-0.038,0.003-0.081,0.005-0.12,0.005
			C694.648,245.55,691.664,245.55,691.664,245.55z"/>
	</g>
	<g id="POLYLINE_00000080890789839520456120000000985558288813141635_">
		<path fill="none" stroke="#F368E0" stroke-width="2" stroke-linecap="round" stroke-linejoin="round" stroke-miterlimit="10" d="
			M680.189,245.55c-0.556,0.006-1.087-0.354-1.288-0.873c-0.05-0.126-0.082-0.26-0.094-0.394c-0.003-0.038-0.005-0.081-0.005-0.12
			v-5.668c-0.005-0.583,0.386-1.13,0.94-1.313c0.128-0.044,0.264-0.068,0.399-0.073c0.012,0.001,0.036-0.002,0.048-0.001h2.984
			c0.03,0,0.066,0.001,0.096,0.003c0.03,0.003,0.066,0.005,0.095,0.01c0.615,0.08,1.116,0.59,1.186,1.206
			c0.007,0.054,0.01,0.112,0.01,0.167c-0.007,0.031,0.005,5.664,0,5.692c-0.002,0.119-0.02,0.24-0.052,0.354
			c-0.111,0.401-0.413,0.742-0.798,0.901c-0.132,0.055-0.274,0.09-0.417,0.103c-0.038,0.003-0.081,0.005-0.12,0.005
			C683.173,245.55,680.189,245.55,680.189,245.55z"/>
	</g>
	<g id="POLYLINE_00000044860504604010918260000014363342602343893148_">
		<path fill="none" stroke="#F368E0" stroke-width="2" stroke-linecap="round" stroke-linejoin="round" stroke-miterlimit="10" d="
			M668.713,245.55c-0.556,0.006-1.087-0.354-1.288-0.873c-0.05-0.126-0.082-0.26-0.094-0.394c-0.003-0.038-0.005-0.081-0.005-0.12
			v-5.668c-0.005-0.583,0.386-1.13,0.94-1.313c0.128-0.044,0.264-0.068,0.399-0.073c0.012,0.001,0.036-0.002,0.048-0.001h2.984
			c0.03,0,0.066,0.001,0.096,0.003c0.03,0.003,0.066,0.005,0.095,0.01c0.615,0.08,1.116,0.59,1.186,1.206
			c0.006,0.054,0.01,0.112,0.01,0.167c-0.007,0.031,0.005,5.664,0,5.692c-0.002,0.119-0.02,0.24-0.052,0.354
			c-0.111,0.401-0.413,0.742-0.798,0.901c-0.132,0.055-0.274,0.09-0.417,0.103c-0.038,0.003-0.081,0.005-0.12,0.005
			C671.698,245.55,668.713,245.55,668.713,245.55z"/>
	</g>
	<g id="POLYLINE_00000168808410966020535160000014108270730614380694_">
		<path fill="none" stroke="#F368E0" stroke-width="2" stroke-linecap="round" stroke-linejoin="round" stroke-miterlimit="10" d="
			M657.238,245.55c-0.556,0.006-1.087-0.354-1.288-0.873c-0.05-0.126-0.082-0.26-0.094-0.394c-0.003-0.038-0.005-0.081-0.005-0.12
			v-5.668c-0.005-0.583,0.386-1.13,0.94-1.313c0.128-0.044,0.264-0.068,0.399-0.073c0.012,0.001,0.036-0.002,0.048-0.001h2.984
			c0.03,0,0.066,0.001,0.096,0.003c0.03,0.003,0.066,0.005,0.095,0.01c0.615,0.08,1.116,0.59,1.186,1.206
			c0.006,0.054,0.01,0.112,0.01,0.167c-0.007,0.031,0.005,5.664,0,5.692c-0.002,0.119-0.02,0.24-0.052,0.354
			c-0.111,0.401-0.413,0.742-0.798,0.901c-0.132,0.055-0.274,0.09-0.417,0.103c-0.038,0.003-0.081,0.005-0.12,0.005
			C660.222,245.55,657.238,245.55,657.238,245.55z"/>
	</g>
	<g id="POLYLINE_00000084502260022146845160000011663845325065509013_">
		<path fill="none" stroke="#F368E0" stroke-width="2" stroke-linecap="round" stroke-linejoin="round" stroke-miterlimit="10" d="
			M645.762,245.55c-0.556,0.006-1.087-0.354-1.288-0.873c-0.05-0.126-0.082-0.26-0.094-0.394c-0.003-0.038-0.005-0.081-0.005-0.12
			v-5.668c-0.005-0.583,0.386-1.13,0.94-1.313c0.128-0.044,0.264-0.068,0.399-0.073c0.012,0.001,0.036-0.002,0.048-0.001h2.984
			c0.03,0,0.066,0.001,0.096,0.003c0.03,0.003,0.066,0.005,0.095,0.01c0.615,0.08,1.116,0.59,1.186,1.206
			c0.006,0.054,0.01,0.112,0.01,0.167c-0.007,0.031,0.005,5.664,0,5.692c-0.002,0.119-0.02,0.24-0.052,0.354
			c-0.111,0.401-0.413,0.742-0.798,0.901c-0.132,0.055-0.274,0.09-0.417,0.103c-0.038,0.003-0.081,0.005-0.12,0.005
			C648.747,245.55,645.762,245.55,645.762,245.55z"/>
	</g>
	<g id="POLYLINE_00000003101114760915822790000011828801094355125183_">
		<path fill="none" stroke="#F368E0" stroke-width="2" stroke-linecap="round" stroke-linejoin="round" stroke-miterlimit="10" d="
			M634.287,245.55c-0.556,0.006-1.087-0.354-1.288-0.873c-0.05-0.126-0.082-0.26-0.094-0.394c-0.003-0.038-0.005-0.081-0.005-0.12
			v-5.668c-0.005-0.583,0.386-1.13,0.94-1.313c0.128-0.044,0.264-0.068,0.399-0.073c0.012,0.001,0.036-0.002,0.048-0.001
			c0,0,2.984,0,2.984,0c0.03,0,0.066,0.001,0.096,0.003c0.03,0.003,0.066,0.005,0.095,0.01c0.615,0.08,1.116,0.59,1.186,1.206
			c0.006,0.054,0.01,0.112,0.01,0.167c-0.007,0.031,0.005,5.664,0,5.692c-0.002,0.119-0.02,0.24-0.052,0.354
			c-0.111,0.401-0.413,0.742-0.798,0.901c-0.132,0.055-0.274,0.09-0.417,0.103c-0.038,0.003-0.081,0.005-0.12,0.005
			C637.271,245.55,634.287,245.55,634.287,245.55z"/>
	</g>
	<g id="POLYLINE_00000016784401248793479730000003779823068745377432_">
		<path fill="none" stroke="#F368E0" stroke-width="2" stroke-linecap="round" stroke-linejoin="round" stroke-miterlimit="10" d="
			M622.811,245.55c-0.556,0.006-1.087-0.354-1.288-0.873c-0.05-0.126-0.082-0.26-0.094-0.394c-0.003-0.038-0.005-0.081-0.005-0.12
			c0,0,0-5.668,0-5.668c-0.005-0.583,0.386-1.13,0.94-1.313c0.128-0.044,0.264-0.068,0.399-0.073
			c0.012,0.001,0.036-0.002,0.048-0.001h2.984c0.03,0,0.066,0.001,0.096,0.003c0.03,0.003,0.066,0.005,0.095,0.01
			c0.615,0.08,1.116,0.59,1.186,1.206c0.007,0.054,0.01,0.112,0.01,0.167c-0.007,0.031,0.005,5.664,0,5.692
			c-0.002,0.119-0.02,0.24-0.052,0.354c-0.111,0.401-0.413,0.742-0.798,0.901c-0.132,0.055-0.274,0.09-0.417,0.103
			c-0.038,0.003-0.081,0.005-0.12,0.005C625.796,245.55,622.811,245.55,622.811,245.55z"/>
	</g>
	<g id="POLYLINE_00000029736417311138773620000011990299503596638878_">
		<path fill="none" stroke="#F368E0" stroke-width="2" stroke-linecap="round" stroke-linejoin="round" stroke-miterlimit="10" d="
			M611.336,245.55c-0.556,0.006-1.087-0.354-1.288-0.873c-0.05-0.126-0.082-0.26-0.094-0.394c-0.003-0.038-0.005-0.081-0.005-0.12
			v-5.668c-0.005-0.583,0.386-1.13,0.94-1.313c0.128-0.044,0.264-0.068,0.399-0.073c0.012,0.001,0.036-0.002,0.048-0.001h2.984
			c0.03,0,0.066,0.001,0.096,0.003c0.03,0.003,0.066,0.005,0.095,0.01c0.615,0.08,1.116,0.59,1.186,1.206
			c0.006,0.054,0.01,0.112,0.01,0.167c-0.007,0.031,0.005,5.664,0,5.692c-0.002,0.119-0.02,0.24-0.052,0.354
			c-0.111,0.401-0.413,0.742-0.798,0.901c-0.132,0.055-0.274,0.09-0.417,0.103c-0.038,0.003-0.081,0.005-0.12,0.005
			C614.32,245.55,611.336,245.55,611.336,245.55z"/>
	</g>
	<g id="POLYLINE_00000063631205004677948060000009735845302936032916_">
		<path fill="none" stroke="#F368E0" stroke-width="2" stroke-linecap="round" stroke-linejoin="round" stroke-miterlimit="10" d="
			M592.346,245.55c-0.556,0.006-1.087-0.354-1.288-0.873c-0.05-0.126-0.082-0.26-0.094-0.394c-0.003-0.038-0.005-0.081-0.005-0.12
			v-5.668c-0.005-0.583,0.386-1.13,0.94-1.313c0.128-0.044,0.264-0.068,0.399-0.073c0.012,0.001,0.036-0.002,0.048-0.001h2.984
			c0.03,0,0.066,0.001,0.096,0.003c0.03,0.003,0.066,0.005,0.095,0.01c0.615,0.08,1.116,0.59,1.186,1.206
			c0.006,0.054,0.01,0.112,0.01,0.167c-0.007,0.031,0.005,5.664,0,5.692c-0.002,0.119-0.02,0.24-0.052,0.354
			c-0.111,0.401-0.413,0.742-0.798,0.901c-0.132,0.055-0.274,0.09-0.417,0.103c-0.038,0.003-0.081,0.005-0.12,0.005
			C595.33,245.55,592.346,245.55,592.346,245.55z"/>
	</g>
	<g id="POLYLINE_00000021090339410617504800000014016257307123666358_">
		<path fill="none" stroke="#F368E0" stroke-width="2" stroke-linecap="round" stroke-linejoin="round" stroke-miterlimit="10" d="
			M580.871,245.55c-0.556,0.006-1.087-0.354-1.288-0.873c-0.05-0.126-0.082-0.26-0.094-0.394c-0.003-0.038-0.005-0.081-0.005-0.12
			v-5.668c-0.005-0.583,0.386-1.13,0.94-1.313c0.128-0.044,0.264-0.068,0.399-0.073c0.012,0.001,0.036-0.002,0.048-0.001h2.984
			c0.03,0,0.066,0.001,0.096,0.003c0.03,0.003,0.066,0.005,0.095,0.01c0.615,0.08,1.116,0.59,1.186,1.206
			c0.007,0.054,0.01,0.112,0.01,0.167c-0.007,0.031,0.005,5.664,0,5.692c-0.002,0.119-0.02,0.24-0.052,0.354
			c-0.111,0.401-0.413,0.742-0.798,0.901c-0.132,0.055-0.274,0.09-0.417,0.103c-0.038,0.003-0.081,0.005-0.12,0.005
			C583.855,245.55,580.871,245.55,580.871,245.55z"/>
	</g>
	<g id="POLYLINE_00000112621749898233236360000003545773642225974658_">
		<path fill="none" stroke="#F368E0" stroke-width="2" stroke-linecap="round" stroke-linejoin="round" stroke-miterlimit="10" d="
			M569.395,245.55c-0.556,0.006-1.087-0.354-1.288-0.873c-0.05-0.126-0.082-0.26-0.094-0.394c-0.003-0.038-0.005-0.081-0.005-0.12
			v-5.668c-0.005-0.583,0.386-1.13,0.94-1.313c0.128-0.044,0.264-0.068,0.399-0.073c0.012,0.001,0.036-0.002,0.048-0.001
			c0,0,2.984,0,2.984,0c0.03,0,0.066,0.001,0.096,0.003c0.03,0.003,0.066,0.005,0.095,0.01c0.615,0.08,1.116,0.59,1.186,1.206
			c0.006,0.054,0.01,0.112,0.01,0.167c-0.007,0.031,0.005,5.664,0,5.692c-0.002,0.119-0.02,0.24-0.052,0.354
			c-0.111,0.401-0.413,0.742-0.798,0.901c-0.132,0.055-0.274,0.09-0.417,0.103c-0.038,0.003-0.081,0.005-0.12,0.005
			C572.38,245.55,569.395,245.55,569.395,245.55z"/>
	</g>
	<g id="POLYLINE_00000085229610508617363990000006020065843807401648_">
		<path fill="none" stroke="#F368E0" stroke-width="2" stroke-linecap="round" stroke-linejoin="round" stroke-miterlimit="10" d="
			M556.847,245.55c-0.556,0.006-1.087-0.354-1.288-0.873c-0.05-0.126-0.082-0.26-0.094-0.394c-0.003-0.038-0.005-0.081-0.005-0.12
			v-5.668c-0.005-0.583,0.386-1.13,0.94-1.313c0.128-0.044,0.264-0.068,0.399-0.073c0.012,0.001,0.036-0.002,0.048-0.001h2.984
			c0.03,0,0.066,0.001,0.096,0.003c0.03,0.003,0.066,0.005,0.095,0.01c0.615,0.08,1.116,0.59,1.186,1.206
			c0.006,0.054,0.01,0.112,0.01,0.167c-0.007,0.031,0.005,5.664,0,5.692c-0.002,0.119-0.02,0.24-0.052,0.354
			c-0.111,0.401-0.413,0.742-0.798,0.901c-0.132,0.055-0.274,0.09-0.417,0.103c-0.038,0.003-0.081,0.005-0.12,0.005
			C559.831,245.55,556.847,245.55,556.847,245.55z"/>
	</g>
	<g id="POLYLINE_00000035522301155837829760000010812854611938574223_">
		<path fill="none" stroke="#F368E0" stroke-width="2" stroke-linecap="round" stroke-linejoin="round" stroke-miterlimit="10" d="
			M527.807,245.55c-0.556,0.006-1.087-0.354-1.288-0.873c-0.05-0.126-0.082-0.26-0.094-0.394c-0.003-0.038-0.005-0.081-0.005-0.12
			c0,0,0-5.668,0-5.668c-0.005-0.583,0.386-1.13,0.94-1.313c0.128-0.044,0.264-0.068,0.399-0.073
			c0.012,0.001,0.036-0.002,0.048-0.001h2.984c0.03,0,0.066,0.001,0.096,0.003c0.03,0.003,0.066,0.005,0.095,0.01
			c0.615,0.08,1.116,0.59,1.186,1.206c0.006,0.054,0.01,0.112,0.01,0.167c-0.007,0.031,0.005,5.664,0,5.692
			c-0.002,0.119-0.02,0.24-0.052,0.354c-0.111,0.401-0.413,0.742-0.798,0.901c-0.132,0.055-0.274,0.09-0.417,0.103
			c-0.038,0.003-0.081,0.005-0.12,0.005C530.792,245.55,527.807,245.55,527.807,245.55z"/>
	</g>
	<g id="POLYLINE_00000123424426991935525160000008596001598674771338_">
		<path fill="none" stroke="#F368E0" stroke-width="2" stroke-linecap="round" stroke-linejoin="round" stroke-miterlimit="10" d="
			M516.332,245.55c-0.556,0.006-1.087-0.354-1.288-0.873c-0.05-0.126-0.082-0.26-0.094-0.394c-0.003-0.038-0.005-0.081-0.005-0.12
			v-5.668c-0.005-0.583,0.386-1.13,0.94-1.313c0.128-0.044,0.264-0.068,0.399-0.073c0.012,0.001,0.036-0.002,0.048-0.001h2.984
			c0.03,0,0.066,0.001,0.096,0.003c0.03,0.003,0.066,0.005,0.095,0.01c0.615,0.08,1.116,0.59,1.186,1.206
			c0.007,0.054,0.01,0.112,0.01,0.167c-0.007,0.031,0.005,5.664,0,5.692c-0.002,0.119-0.02,0.24-0.052,0.354
			c-0.111,0.401-0.413,0.742-0.798,0.901c-0.132,0.055-0.274,0.09-0.417,0.103c-0.038,0.003-0.081,0.005-0.12,0.005
			C519.317,245.55,516.332,245.55,516.332,245.55z"/>
	</g>
	<g id="POLYLINE_00000083069323128430860490000017077529930231947937_">
		<path fill="none" stroke="#F368E0" stroke-width="2" stroke-linecap="round" stroke-linejoin="round" stroke-miterlimit="10" d="
			M504.857,245.55c-0.556,0.006-1.087-0.354-1.288-0.873c-0.05-0.126-0.082-0.26-0.094-0.394c-0.003-0.038-0.005-0.081-0.005-0.12
			v-5.668c-0.005-0.583,0.386-1.13,0.94-1.313c0.128-0.044,0.264-0.068,0.399-0.073c0.012,0.001,0.036-0.002,0.048-0.001h2.984
			c0.03,0,0.066,0.001,0.096,0.003c0.03,0.003,0.066,0.005,0.095,0.01c0.615,0.08,1.116,0.59,1.186,1.206
			c0.006,0.054,0.01,0.112,0.01,0.167c-0.007,0.031,0.005,5.664,0,5.692c-0.002,0.119-0.02,0.24-0.052,0.354
			c-0.111,0.401-0.413,0.742-0.798,0.901c-0.132,0.055-0.274,0.09-0.417,0.103c-0.038,0.003-0.081,0.005-0.12,0.005
			C507.841,245.55,504.857,245.55,504.857,245.55z"/>
	</g>
	<g id="POLYLINE_00000092418055142575764720000012933391007663901096_">
		<path fill="none" stroke="#F368E0" stroke-width="2" stroke-linecap="round" stroke-linejoin="round" stroke-miterlimit="10" d="
			M493.381,245.55c-0.556,0.006-1.087-0.354-1.288-0.873c-0.05-0.126-0.082-0.26-0.094-0.394c-0.003-0.038-0.005-0.081-0.005-0.12
			v-5.668c-0.005-0.583,0.386-1.13,0.94-1.313c0.128-0.044,0.264-0.068,0.399-0.073c0.012,0.001,0.036-0.002,0.048-0.001h2.984
			c0.03,0,0.066,0.001,0.096,0.003c0.03,0.003,0.066,0.005,0.095,0.01c0.615,0.08,1.116,0.59,1.186,1.206
			c0.007,0.054,0.01,0.112,0.01,0.167c-0.007,0.031,0.005,5.664,0,5.692c-0.002,0.119-0.02,0.24-0.052,0.354
			c-0.111,0.401-0.413,0.742-0.798,0.901c-0.132,0.055-0.274,0.09-0.417,0.103c-0.038,0.003-0.081,0.005-0.12,0.005
			C496.366,245.55,493.381,245.55,493.381,245.55z"/>
	</g>
	<g id="POLYLINE_00000178922930915574317870000017988023200293303938_">
		<path fill="none" stroke="#F368E0" stroke-width="2" stroke-linecap="round" stroke-linejoin="round" stroke-miterlimit="10" d="
			M481.906,245.55c-0.556,0.006-1.087-0.354-1.288-0.873c-0.05-0.126-0.082-0.26-0.094-0.394c-0.003-0.038-0.005-0.081-0.005-0.12
			v-5.668c-0.005-0.583,0.386-1.13,0.94-1.313c0.128-0.044,0.264-0.068,0.399-0.073c0.012,0.001,0.036-0.002,0.048-0.001h2.984
			c0.03,0,0.066,0.001,0.096,0.003c0.03,0.003,0.066,0.005,0.095,0.01c0.615,0.08,1.116,0.59,1.186,1.206
			c0.007,0.054,0.01,0.112,0.01,0.167c-0.007,0.031,0.005,5.664,0,5.692c-0.002,0.119-0.02,0.24-0.052,0.354
			c-0.111,0.401-0.413,0.742-0.798,0.901c-0.132,0.055-0.274,0.09-0.417,0.103c-0.038,0.003-0.081,0.005-0.12,0.005
			C484.89,245.55,481.906,245.55,481.906,245.55z"/>
	</g>
	<g id="POLYLINE_00000083777358266845984260000013067546869914790538_">
		<path fill="none" stroke="#F368E0" stroke-width="2" stroke-linecap="round" stroke-linejoin="round" stroke-miterlimit="10" d="
			M469.044,243.762c0.002-0.027-0.002-5.267,0-5.29c0.001-0.079,0.01-0.16,0.025-0.238c0.051-0.266,0.182-0.517,0.373-0.71
			c0.229-0.234,0.543-0.382,0.869-0.409c0.038-0.003,0.081-0.005,0.12-0.005h2.984c0.021,0,0.051,0.001,0.072,0.002
			c0.135,0.007,0.27,0.034,0.397,0.08c0.301,0.107,0.561,0.323,0.724,0.598c0.098,0.164,0.161,0.35,0.184,0.54
			c0.006,0.054,0.01,0.112,0.01,0.167v5.668c0.001,0.327-0.119,0.653-0.332,0.901"/>
	</g>
	<g id="POLYLINE_00000023276805410218892950000003041282585624733359_">
		<path fill="none" stroke="#F368E0" stroke-width="2" stroke-linecap="round" stroke-linejoin="round" stroke-miterlimit="10" d="
			M457.568,241.077c0.013-0.167-0.033-2.826,0.035-2.89c0.065-0.288,0.226-0.554,0.45-0.745c0.23-0.198,0.527-0.316,0.83-0.331
			c0.021-0.001,0.05-0.002,0.072-0.002h2.984c0.03,0,0.066,0.001,0.096,0.003c0.135,0.009,0.27,0.039,0.396,0.087
			c0.261,0.099,0.491,0.279,0.649,0.509c0.122,0.177,0.203,0.384,0.232,0.597c0.009,0.062,0.013,0.128,0.013,0.191v3.912"/>
	</g>
	<g id="POLYLINE_00000076568989341630365910000011797264010469887367_">
		<path fill="none" stroke="#F368E0" stroke-width="2" stroke-linecap="round" stroke-linejoin="round" stroke-miterlimit="10" d="
			M446.093,238.663c-0.011-0.304,0.026-0.587,0.182-0.854c0.2-0.355,0.564-0.612,0.967-0.68c0.172-0.041,3.159-0.02,3.366-0.013
			c0.222,0.023,0.439,0.101,0.624,0.225c0.266,0.176,0.468,0.448,0.559,0.753c0.03,0.099,0.049,0.203,0.056,0.305
			c0.002,0.03,0.004,0.066,0.003,0.096v1.325"/>
	</g>
	<g id="POLYLINE_00000098199270177753353390000000421150026578524321_">
		<path fill="none" stroke="#F368E0" stroke-width="2" stroke-linecap="round" stroke-linejoin="round" stroke-miterlimit="10" d="
			M401.036,245.55c-0.556,0.006-1.087-0.354-1.288-0.873c-0.05-0.126-0.082-0.26-0.094-0.394c-0.003-0.038-0.005-0.081-0.005-0.12
			v-5.668c-0.005-0.583,0.386-1.13,0.94-1.313c0.128-0.044,0.264-0.068,0.399-0.073c0.012,0.001,0.036-0.002,0.048-0.001h2.984
			c0.03,0,0.066,0.001,0.096,0.003c0.03,0.003,0.066,0.005,0.095,0.01c0.615,0.08,1.116,0.59,1.186,1.206
			c0.006,0.054,0.01,0.112,0.01,0.167c-0.007,0.031,0.005,5.664,0,5.692c-0.002,0.119-0.02,0.24-0.052,0.354
			c-0.111,0.401-0.413,0.742-0.798,0.901c-0.132,0.055-0.274,0.09-0.417,0.103c-0.038,0.003-0.081,0.005-0.12,0.005
			C404.02,245.55,401.036,245.55,401.036,245.55z"/>
	</g>
	<g id="POLYLINE_00000122690777834363036020000003977725333078866566_">
		<path fill="none" stroke="#F368E0" stroke-width="2" stroke-linecap="round" stroke-linejoin="round" stroke-miterlimit="10" d="
			M540.355,245.55c-0.556,0.006-1.087-0.354-1.288-0.873c-0.05-0.126-0.082-0.26-0.094-0.394c-0.003-0.038-0.005-0.081-0.005-0.12
			v-5.668c-0.005-0.583,0.386-1.13,0.94-1.313c0.128-0.044,0.264-0.068,0.399-0.073c0.012,0.001,0.036-0.002,0.048-0.001h2.984
			c0.03,0,0.066,0.001,0.096,0.003c0.03,0.003,0.066,0.005,0.095,0.01c0.615,0.08,1.116,0.59,1.186,1.206
			c0.006,0.054,0.01,0.112,0.01,0.167c-0.007,0.031,0.005,5.664,0,5.692c-0.002,0.119-0.02,0.24-0.052,0.354
			c-0.111,0.401-0.413,0.742-0.798,0.901c-0.132,0.055-0.274,0.09-0.417,0.103c-0.038,0.003-0.081,0.005-0.12,0.005
			C543.339,245.55,540.355,245.55,540.355,245.55z"/>
	</g>
	<g id="POLYLINE_00000018916023415168100370000016274109615147357858_">
		<path fill="none" stroke="#F368E0" stroke-width="2" stroke-linecap="round" stroke-linejoin="round" stroke-miterlimit="10" d="
			M389.56,245.55c-0.556,0.006-1.087-0.354-1.288-0.873c-0.05-0.126-0.082-0.26-0.094-0.394c-0.003-0.038-0.005-0.081-0.005-0.12
			v-5.668c-0.005-0.583,0.386-1.13,0.94-1.313c0.128-0.044,0.264-0.068,0.399-0.073c0.012,0.001,0.036-0.002,0.048-0.001h2.984
			c0.03,0,0.066,0.001,0.096,0.003c0.03,0.003,0.066,0.005,0.095,0.01c0.615,0.08,1.116,0.59,1.186,1.206
			c0.006,0.054,0.01,0.112,0.01,0.167c-0.007,0.031,0.005,5.664,0,5.692c-0.002,0.119-0.02,0.24-0.052,0.354
			c-0.111,0.401-0.413,0.742-0.798,0.901c-0.132,0.055-0.274,0.09-0.417,0.103c-0.038,0.003-0.081,0.005-0.12,0.005
			C392.545,245.55,389.56,245.55,389.56,245.55z"/>
	</g>
	<g id="POLYLINE_00000032618290109573254980000010286594153885267641_">
		<path fill="none" stroke="#F368E0" stroke-width="2" stroke-linecap="round" stroke-linejoin="round" stroke-miterlimit="10" d="
			M378.085,245.55c-0.556,0.006-1.087-0.354-1.288-0.873c-0.05-0.126-0.082-0.26-0.094-0.394c-0.003-0.038-0.005-0.081-0.005-0.12
			v-5.668c-0.005-0.583,0.386-1.13,0.94-1.313c0.128-0.044,0.264-0.068,0.399-0.073c0.012,0.001,0.036-0.002,0.048-0.001h2.984
			c0.03,0,0.066,0.001,0.096,0.003c0.03,0.003,0.066,0.005,0.095,0.01c0.615,0.08,1.116,0.59,1.186,1.206
			c0.006,0.054,0.01,0.112,0.01,0.167c-0.007,0.031,0.005,5.664,0,5.692c-0.002,0.119-0.02,0.24-0.052,0.354
			c-0.111,0.401-0.413,0.742-0.798,0.901c-0.132,0.055-0.274,0.09-0.417,0.103c-0.038,0.003-0.081,0.005-0.12,0.005
			C381.069,245.55,378.085,245.55,378.085,245.55z"/>
	</g>
	<g id="POLYLINE_00000118378691572429505830000013669612268790024362_">
		<path fill="none" stroke="#F368E0" stroke-width="2" stroke-linecap="round" stroke-linejoin="round" stroke-miterlimit="10" d="
			M366.609,245.55c-0.556,0.006-1.087-0.354-1.288-0.873c-0.05-0.126-0.082-0.26-0.094-0.394c-0.003-0.038-0.005-0.081-0.005-0.12
			v-5.668c-0.005-0.583,0.386-1.13,0.94-1.313c0.128-0.044,0.264-0.068,0.399-0.073c0.012,0.001,0.036-0.002,0.048-0.001h2.984
			c0.03,0,0.066,0.001,0.096,0.003c0.03,0.003,0.066,0.005,0.095,0.01c0.615,0.08,1.116,0.59,1.186,1.206
			c0.007,0.054,0.01,0.112,0.01,0.167c-0.007,0.031,0.005,5.664,0,5.692c-0.002,0.119-0.02,0.24-0.052,0.354
			c-0.111,0.401-0.413,0.742-0.798,0.901c-0.132,0.055-0.274,0.09-0.417,0.103c-0.038,0.003-0.081,0.005-0.12,0.005
			C369.594,245.55,366.609,245.55,366.609,245.55z"/>
	</g>
	<g id="POLYLINE_00000113333026257897808580000001570112505379983264_">
		<path fill="none" stroke="#F368E0" stroke-width="2" stroke-linecap="round" stroke-linejoin="round" stroke-miterlimit="10" d="
			M355.134,245.55c-0.556,0.006-1.087-0.354-1.288-0.873c-0.05-0.126-0.082-0.26-0.094-0.394c-0.003-0.038-0.005-0.081-0.005-0.12
			v-5.668c-0.005-0.583,0.386-1.13,0.94-1.313c0.128-0.044,0.264-0.068,0.399-0.073c0.012,0.001,0.036-0.002,0.048-0.001
			c0,0,2.984,0,2.984,0c0.03,0,0.066,0.001,0.096,0.003c0.03,0.003,0.066,0.005,0.095,0.01c0.615,0.08,1.116,0.59,1.186,1.206
			c0.007,0.054,0.01,0.112,0.01,0.167c-0.007,0.031,0.005,5.664,0,5.692c-0.002,0.119-0.02,0.24-0.052,0.354
			c-0.111,0.401-0.413,0.742-0.798,0.901c-0.132,0.055-0.274,0.09-0.417,0.103c-0.038,0.003-0.081,0.005-0.12,0.005
			C358.118,245.55,355.134,245.55,355.134,245.55z"/>
	</g>
	<g id="POLYLINE_00000021816389051761127420000009652345450643156878_">
		<path fill="none" stroke="#F368E0" stroke-width="2" stroke-linecap="round" stroke-linejoin="round" stroke-miterlimit="10" d="
			M343.659,245.55c-0.556,0.006-1.087-0.354-1.288-0.873c-0.05-0.126-0.082-0.26-0.094-0.394c-0.003-0.038-0.005-0.081-0.005-0.12
			c0,0,0-5.668,0-5.668c-0.005-0.583,0.386-1.13,0.94-1.313c0.128-0.044,0.264-0.068,0.399-0.073
			c0.012,0.001,0.036-0.002,0.048-0.001h2.984c0.03,0,0.066,0.001,0.096,0.003c0.03,0.003,0.066,0.005,0.095,0.01
			c0.615,0.08,1.116,0.59,1.186,1.206c0.006,0.054,0.01,0.112,0.01,0.167c-0.007,0.031,0.005,5.664,0,5.692
			c-0.002,0.119-0.02,0.24-0.052,0.354c-0.111,0.401-0.413,0.742-0.798,0.901c-0.132,0.055-0.274,0.09-0.417,0.103
			c-0.038,0.003-0.081,0.005-0.12,0.005C346.643,245.55,343.659,245.55,343.659,245.55z"/>
	</g>
	<g id="POLYLINE_00000170968499242775594010000004389295068809348772_">
		<path fill="none" stroke="#F368E0" stroke-width="2" stroke-linecap="round" stroke-linejoin="round" stroke-miterlimit="10" d="
			M332.183,245.55c-0.556,0.006-1.087-0.354-1.288-0.873c-0.05-0.126-0.082-0.26-0.094-0.394c-0.003-0.038-0.005-0.081-0.005-0.12
			v-5.668c-0.005-0.583,0.386-1.13,0.94-1.313c0.128-0.044,0.264-0.068,0.399-0.073c0.012,0.001,0.036-0.002,0.048-0.001h2.984
			c0.03,0,0.066,0.001,0.096,0.003c0.03,0.003,0.066,0.005,0.095,0.01c0.615,0.08,1.116,0.59,1.186,1.206
			c0.006,0.054,0.01,0.112,0.01,0.167c-0.007,0.031,0.005,5.664,0,5.692c-0.002,0.119-0.02,0.24-0.052,0.354
			c-0.111,0.401-0.413,0.742-0.798,0.901c-0.132,0.055-0.274,0.09-0.417,0.103c-0.038,0.003-0.081,0.005-0.12,0.005
			C335.168,245.55,332.183,245.55,332.183,245.55z"/>
	</g>
	<g id="POLYLINE_00000096055826004560795750000017100001370273427602_">
		<path fill="none" stroke="#F368E0" stroke-width="2" stroke-linecap="round" stroke-linejoin="round" stroke-miterlimit="10" d="
			M320.708,245.55c-0.556,0.006-1.087-0.354-1.288-0.873c-0.05-0.126-0.082-0.26-0.094-0.394c-0.003-0.038-0.005-0.081-0.005-0.12
			v-5.668c-0.005-0.583,0.386-1.13,0.94-1.313c0.128-0.044,0.264-0.068,0.399-0.073c0.012,0.001,0.036-0.002,0.048-0.001h2.984
			c0.03,0,0.066,0.001,0.096,0.003c0.03,0.003,0.066,0.005,0.095,0.01c0.615,0.08,1.116,0.59,1.186,1.206
			c0.006,0.054,0.01,0.112,0.01,0.167c-0.007,0.031,0.005,5.664,0,5.692c-0.002,0.119-0.02,0.24-0.052,0.354
			c-0.111,0.401-0.413,0.742-0.798,0.901c-0.132,0.055-0.274,0.09-0.417,0.103c-0.038,0.003-0.081,0.005-0.12,0.005
			C323.692,245.55,320.708,245.55,320.708,245.55z"/>
	</g>
	<g id="POLYLINE_00000083794590325563171430000008368981595553859968_">
		<path fill="none" stroke="#F368E0" stroke-width="2" stroke-linecap="round" stroke-linejoin="round" stroke-miterlimit="10" d="
			M309.232,245.55c-0.556,0.006-1.087-0.354-1.288-0.873c-0.05-0.126-0.082-0.26-0.094-0.394c-0.003-0.038-0.005-0.081-0.005-0.12
			v-5.668c-0.005-0.583,0.386-1.13,0.94-1.313c0.128-0.044,0.264-0.068,0.399-0.073c0.012,0.001,0.036-0.002,0.048-0.001h2.984
			c0.03,0,0.066,0.001,0.096,0.003c0.03,0.003,0.066,0.005,0.095,0.01c0.615,0.08,1.116,0.59,1.186,1.206
			c0.006,0.054,0.01,0.112,0.01,0.167c-0.007,0.031,0.005,5.664,0,5.692c-0.002,0.119-0.02,0.24-0.052,0.354
			c-0.111,0.401-0.413,0.742-0.798,0.901c-0.132,0.055-0.274,0.09-0.417,0.103c-0.038,0.003-0.081,0.005-0.12,0.005
			C312.217,245.55,309.232,245.55,309.232,245.55z"/>
	</g>
	<g id="POLYLINE_00000016042232005568611950000006206740103362930051_">
		<path fill="none" stroke="#F368E0" stroke-width="2" stroke-linecap="round" stroke-linejoin="round" stroke-miterlimit="10" d="
			M297.757,245.55c-0.556,0.006-1.087-0.354-1.288-0.873c-0.05-0.126-0.082-0.26-0.094-0.394c-0.003-0.038-0.005-0.081-0.005-0.12
			v-5.668c-0.005-0.583,0.386-1.13,0.94-1.313c0.128-0.044,0.264-0.068,0.399-0.073c0.012,0.001,0.036-0.002,0.048-0.001h2.984
			c0.03,0,0.066,0.001,0.096,0.003c0.03,0.003,0.066,0.005,0.095,0.01c0.615,0.08,1.116,0.59,1.186,1.206
			c0.007,0.054,0.01,0.112,0.01,0.167c-0.007,0.031,0.005,5.664,0,5.692c-0.002,0.119-0.02,0.24-0.052,0.354
			c-0.111,0.401-0.413,0.742-0.798,0.901c-0.132,0.055-0.274,0.09-0.417,0.103c-0.038,0.003-0.081,0.005-0.12,0.005
			C300.741,245.55,297.757,245.55,297.757,245.55z"/>
	</g>
	<g id="POLYLINE_00000145034153655825270610000009694454338469680256_">
		<path fill="none" stroke="#F368E0" stroke-width="2" stroke-linecap="round" stroke-linejoin="round" stroke-miterlimit="10" d="
			M286.281,245.55c-0.556,0.006-1.087-0.354-1.288-0.873c-0.05-0.126-0.082-0.26-0.094-0.394c-0.003-0.038-0.005-0.081-0.005-0.12
			v-5.668c-0.005-0.583,0.386-1.13,0.94-1.313c0.128-0.044,0.264-0.068,0.399-0.073c0.012,0.001,0.036-0.002,0.048-0.001h2.984
			c0.03,0,0.066,0.001,0.096,0.003c0.03,0.003,0.066,0.005,0.095,0.01c0.615,0.08,1.116,0.59,1.186,1.206
			c0.007,0.054,0.01,0.112,0.01,0.167c-0.007,0.031,0.005,5.664,0,5.692c-0.002,0.119-0.02,0.24-0.052,0.354
			c-0.111,0.401-0.413,0.742-0.798,0.901c-0.132,0.055-0.274,0.09-0.417,0.103c-0.038,0.003-0.081,0.005-0.12,0.005
			C289.266,245.55,286.281,245.55,286.281,245.55z"/>
	</g>
	<g id="POLYLINE_00000119102019064475176460000013969881112748295051_">
		<path fill="none" stroke="#F368E0" stroke-width="2" stroke-linecap="round" stroke-linejoin="round" stroke-miterlimit="10" d="
			M274.806,245.55c-0.556,0.006-1.087-0.354-1.288-0.873c-0.05-0.126-0.082-0.26-0.094-0.394c-0.003-0.038-0.005-0.081-0.005-0.12
			v-5.668c-0.005-0.583,0.386-1.13,0.94-1.313c0.128-0.044,0.264-0.068,0.399-0.073c0.012,0.001,0.036-0.002,0.048-0.001h2.984
			c0.03,0,0.066,0.001,0.096,0.003c0.03,0.003,0.066,0.005,0.095,0.01c0.615,0.08,1.116,0.59,1.186,1.206
			c0.006,0.054,0.01,0.112,0.01,0.167c-0.007,0.031,0.005,5.664,0,5.692c-0.002,0.119-0.02,0.24-0.052,0.354
			c-0.111,0.401-0.413,0.742-0.798,0.901c-0.132,0.055-0.274,0.09-0.417,0.103c-0.038,0.003-0.081,0.005-0.12,0.005
			C277.79,245.55,274.806,245.55,274.806,245.55z"/>
	</g>
	<g id="POLYLINE_00000164496135775591173180000011552522198136595107_">
		<path fill="none" stroke="#F368E0" stroke-width="2" stroke-linecap="round" stroke-linejoin="round" stroke-miterlimit="10" d="
			M263.331,245.55c-0.556,0.006-1.087-0.354-1.288-0.873c-0.05-0.126-0.082-0.26-0.094-0.394c-0.003-0.038-0.005-0.081-0.005-0.12
			v-5.668c-0.005-0.583,0.386-1.13,0.94-1.313c0.128-0.044,0.264-0.068,0.399-0.073c0.012,0.001,0.036-0.002,0.048-0.001h2.984
			c0.03,0,0.066,0.001,0.096,0.003c0.03,0.003,0.066,0.005,0.095,0.01c0.615,0.08,1.116,0.59,1.186,1.206
			c0.006,0.054,0.01,0.112,0.01,0.167c-0.007,0.031,0.005,5.664,0,5.692c-0.002,0.119-0.02,0.24-0.052,0.354
			c-0.111,0.401-0.413,0.742-0.798,0.901c-0.132,0.055-0.274,0.09-0.417,0.103c-0.038,0.003-0.081,0.005-0.12,0.005
			C266.315,245.55,263.331,245.55,263.331,245.55z"/>
	</g>
	<g id="POLYLINE_00000166639475833526542340000011518623626686436742_">
		<path fill="none" stroke="#F368E0" stroke-width="2" stroke-linecap="round" stroke-linejoin="round" stroke-miterlimit="10" d="
			M416.882,243.601c-0.009,0.375,0.047,0.77-0.117,1.12c-0.212,0.495-0.731,0.834-1.269,0.828c0,0-2.984,0-2.984,0
			c-0.03,0-0.066-0.001-0.096-0.003c-0.063-0.004-0.128-0.013-0.19-0.026c-0.265-0.055-0.514-0.191-0.704-0.385
			c-0.185-0.187-0.314-0.429-0.368-0.687c-0.069-0.057-0.012-3.118-0.03-3.273"/>
	</g>
</g>
<g id="_x32_D_x24_AG-TRANSPORT">
	<g id="POLYLINE_00000067958246939344136830000010709678073185364656_">
		
			<path fill="none" stroke="#F368E0" stroke-width="2.75" stroke-linecap="round" stroke-linejoin="round" stroke-miterlimit="10" d="
			M622.314,583.108c-0.007-0.867-0.031-1.758-0.261-2.6c-0.095-0.337-0.232-0.668-0.442-0.95c-0.177-0.239-0.409-0.437-0.668-0.582
			c-0.314-0.177-0.662-0.291-1.01-0.382c-0.583-0.151-1.194-0.232-1.795-0.275c-0.922-0.063-1.862-0.033-2.779,0.087
			c-0.561,0.079-1.135,0.176-1.67,0.366c-0.52,0.184-1.004,0.494-1.344,0.933c-0.714,0.928-0.844,2.182-0.877,3.316"/>
	</g>
	<g id="POLYLINE_00000052810142137435050480000004955034209556050344_">
		
			<line fill="none" stroke="#F368E0" stroke-width="2.75" stroke-linecap="round" stroke-linejoin="round" stroke-miterlimit="10" x1="599.906" y1="589.055" x2="555.545" y2="600.579"/>
	</g>
	<g id="POLYLINE_00000044157030838081741250000003164877469867831455_">
		
			<path fill="none" stroke="#F368E0" stroke-width="2.75" stroke-linecap="round" stroke-linejoin="round" stroke-miterlimit="10" d="
			M555.545,576.821c0.029-0.003,189.67-17.272,189.729-17.284c0.358-0.058,132.969-16.818,133.293-16.895
			c0.386-0.076,0.765-0.196,1.123-0.355c0.548-0.244,1.055-0.583,1.489-0.996c0.45-0.428,0.825-0.938,1.098-1.496
			c0.167-0.341,0.298-0.702,0.388-1.07c0.036-0.15,0.068-0.308,0.091-0.461c0.064-0.184,5.172-46.494,5.222-46.698h0.778
			l-3.15,45.937c-0.009,0.126-0.024,0.296-0.04,0.422c-0.028,0.225-0.068,0.475-0.115,0.696c-0.125,0.596-0.321,1.186-0.576,1.739
			c-0.413,0.896-0.995,1.72-1.7,2.41c-0.638,0.624-1.384,1.146-2.19,1.529c-0.549,0.262-1.138,0.465-1.732,0.598
			c-0.61,0.164-254.401,38.508-255.032,38.633"/>
	</g>
	<g id="POLYLINE_00000163794410264361284260000012760181302410661280_">
		
			<path fill="none" stroke="#F368E0" stroke-width="2.75" stroke-linecap="round" stroke-linejoin="round" stroke-miterlimit="10" d="
			M598.436,604.861c-0.012-6.138,3.469-11.731,8.741-14.78c4.595-2.692,10.319-3.315,15.399-1.737
			c2.418,0.743,4.695,1.973,6.623,3.613c2.016,1.711,3.655,3.881,4.709,6.309c1.097,2.522,1.575,5.328,1.305,8.069
			c-0.193,1.918-0.775,3.799-1.676,5.502c-2.513,4.785-7.432,8.017-12.68,9.032c-4.762,0.946-9.874,0.166-14.078-2.283
			C601.857,615.748,598.427,610.632,598.436,604.861z"/>
	</g>
	<g id="POLYLINE_00000124857222912057477870000010293402602183759259_">
		
			<path fill="none" stroke="#F368E0" stroke-width="2.75" stroke-linecap="round" stroke-linejoin="round" stroke-miterlimit="10" d="
			M617.919,582.612c4.735,0.218,9.565,1.395,13.497,4.129c1.709,1.186,3.19,2.698,4.408,4.382c1.67,2.307,2.901,4.925,3.734,7.644
			c1.315,4.262,1.564,8.862,0.624,13.228c-0.692,3.139-1.912,6.274-4.089,8.686c-1.322,1.465-3.004,2.576-4.81,3.353
			c-3.051,1.309-6.408,1.759-9.693,2.042c-4.189,0.326-8.47,0.324-12.633-0.274c-4.11-0.621-8.425-1.879-11.372-4.97
			c-1.557-1.643-2.536-3.75-3.158-5.906c-0.642-2.234-0.94-4.573-1.079-6.889c-0.152-2.58-0.065-5.206,0.466-7.742
			c0.886-4.324,3.157-8.319,6.276-11.425c1.598-1.588,3.444-2.941,5.47-3.932C609.372,583.059,613.702,582.426,617.919,582.612z"/>
	</g>
	<g id="POLYLINE_00000106841178787095790780000017893179917677108916_">
		
			<path fill="none" stroke="#F368E0" stroke-width="2.75" stroke-linecap="round" stroke-linejoin="round" stroke-miterlimit="10" d="
			M602.136,604.861c-0.018-4.928,2.536-9.647,6.672-12.328c7.562-4.926,17.717-1.974,21.461,6.237c1.753,3.812,1.753,8.37,0,12.181
			c-3.744,8.211-13.9,11.163-21.461,6.237C604.673,614.509,602.118,609.789,602.136,604.861z"/>
	</g>
	<g id="POLYLINE_00000026124468194136100970000002882149637347978125_">
		
			<path fill="none" stroke="#F368E0" stroke-width="2.75" stroke-linecap="round" stroke-linejoin="round" stroke-miterlimit="10" d="
			M613.143,604.861c-0.002-0.82,0.279-1.638,0.784-2.284c0.502-0.648,1.226-1.121,2.022-1.321c2.334-0.59,4.609,1.165,4.631,3.572
			c0.019,2.434-2.271,4.233-4.631,3.637c-0.795-0.2-1.519-0.672-2.022-1.321C613.422,606.499,613.142,605.681,613.143,604.861z"/>
	</g>
	<g id="POLYLINE_00000041268432160692346790000014036082260480152988_">
		
			<path fill="none" stroke="#F368E0" stroke-width="2.75" stroke-linecap="round" stroke-linejoin="round" stroke-miterlimit="10" d="
			M648.417,579.866c-0.001,0.029,0.001,6.076,0,6.102c-0.001,0.071-0.008,0.145-0.019,0.215c-0.037,0.24-0.132,0.471-0.273,0.668
			c-0.203,0.286-0.506,0.499-0.844,0.593c-0.129,0.037-0.265,0.057-0.399,0.059c-0.016,0.005-3.873-0.003-3.894,0
			c-0.062,0-0.127-0.004-0.188-0.011c-0.348-0.042-0.68-0.205-0.926-0.456c-0.214-0.218-0.363-0.5-0.42-0.8
			c-0.017-0.087-0.026-0.179-0.028-0.268c-0.016-0.031,0.011-5.013,0-5.044"/>
	</g>
	<g id="POLYLINE_00000065760197552890360550000012501523216259539638_">
		
			<path fill="none" stroke="#F368E0" stroke-width="2.75" stroke-linecap="round" stroke-linejoin="round" stroke-miterlimit="10" d="
			M717.552,569.398c-0.001,0.029,0.001,5.893,0,5.92c-0.001,0.071-0.008,0.145-0.019,0.215c-0.037,0.24-0.132,0.471-0.273,0.668
			c-0.203,0.286-0.506,0.498-0.844,0.593c-0.129,0.037-0.265,0.057-0.399,0.059c-0.016,0.005-3.873-0.003-3.894,0
			c-0.062,0-0.127-0.004-0.188-0.011c-0.339-0.04-0.663-0.197-0.906-0.437c-0.218-0.214-0.371-0.494-0.434-0.793
			c-0.018-0.087-0.029-0.178-0.032-0.267c0.001-0.013-0.002-0.041-0.001-0.054v-4.834"/>
	</g>
	<g id="POLYLINE_00000125562325737876115980000009236483356103300512_">
		
			<path fill="none" stroke="#F368E0" stroke-width="2.75" stroke-linecap="round" stroke-linejoin="round" stroke-miterlimit="10" d="
			M550.019,543.648c0.011-0.008,118.99-25.556,119.008-25.579c0.101-0.039,0.189-0.109,0.249-0.198
			c0.055-0.081,0.087-0.179,0.09-0.277c0.013-0.042-0.137-0.838-0.146-0.902c-0.024-0.138-0.105-0.265-0.221-0.345
			c-0.083-0.057-0.182-0.09-0.282-0.093c-0.103-0.016-122.753,21.43-122.863,21.438"/>
	</g>
	<g id="POLYLINE_00000065781774238992428820000012364649262926010002_">
		
			<path fill="none" stroke="#F368E0" stroke-width="2.75" stroke-linecap="round" stroke-linejoin="round" stroke-miterlimit="10" d="
			M555.545,576.821v23.758c-0.001,0.145-0.005,0.34-0.013,0.485c-0.028,0.533-0.104,1.079-0.222,1.6
			c-0.167,0.732-0.427,1.454-0.764,2.125c-1.084,2.174-3.049,3.885-5.352,4.659c-0.711,0.242-1.462,0.4-2.21,0.465
			c-0.201,0.017-0.444,0.03-0.646,0.033c0,0-0.162,0.001-0.162,0.001h-17.897"/>
	</g>
	<g id="POLYLINE_00000034052745001971167290000004541746753282026173_">
		
			<path fill="none" stroke="#F368E0" stroke-width="2.75" stroke-linecap="round" stroke-linejoin="round" stroke-miterlimit="10" d="
			M406.491,583.108c0.007-0.867,0.031-1.758,0.261-2.6c0.095-0.337,0.232-0.668,0.442-0.95c0.177-0.239,0.409-0.437,0.668-0.582
			c0.314-0.177,0.662-0.291,1.01-0.382c0.583-0.151,1.194-0.232,1.795-0.275c0.922-0.063,1.862-0.033,2.779,0.087
			c0.561,0.079,1.135,0.176,1.67,0.366c0.52,0.184,1.004,0.494,1.344,0.933c0.714,0.928,0.844,2.182,0.877,3.316"/>
	</g>
	<g id="POLYLINE_00000128461634185205491440000011420769256828719289_">
		
			<line fill="none" stroke="#F368E0" stroke-width="2.75" stroke-linecap="round" stroke-linejoin="round" stroke-miterlimit="10" x1="428.9" y1="589.055" x2="473.261" y2="600.579"/>
	</g>
	<g id="POLYLINE_00000175293316857211186900000000559592379595673015_">
		
			<path fill="none" stroke="#F368E0" stroke-width="2.75" stroke-linecap="round" stroke-linejoin="round" stroke-miterlimit="10" d="
			M473.261,576.821c-0.029-0.003-189.67-17.272-189.729-17.284c-0.358-0.058-132.969-16.818-133.293-16.895
			c-0.386-0.076-0.765-0.196-1.123-0.355c-0.548-0.244-1.055-0.583-1.489-0.996c-0.45-0.428-0.825-0.938-1.098-1.496
			c-0.167-0.341-0.298-0.702-0.388-1.07c-0.037-0.15-0.068-0.308-0.091-0.461c-0.064-0.184-5.172-46.494-5.222-46.698h-0.778
			l3.15,45.937c0.009,0.126,0.024,0.296,0.04,0.422c0.028,0.225,0.068,0.475,0.115,0.696c0.125,0.596,0.321,1.186,0.576,1.739
			c0.413,0.896,0.995,1.72,1.7,2.41c0.638,0.624,1.384,1.146,2.19,1.529c0.549,0.262,1.138,0.465,1.732,0.598
			c0.61,0.164,254.401,38.508,255.032,38.633"/>
	</g>
	<g id="POLYLINE_00000086665696032127571370000003238497031426305683_">
		
			<path fill="none" stroke="#F368E0" stroke-width="2.75" stroke-linecap="round" stroke-linejoin="round" stroke-miterlimit="10" d="
			M430.369,604.861c0.012-6.138-3.469-11.731-8.741-14.78c-4.595-2.692-10.319-3.315-15.399-1.737
			c-2.418,0.743-4.695,1.973-6.623,3.613c-2.016,1.711-3.655,3.881-4.709,6.309c-1.097,2.522-1.575,5.328-1.305,8.069
			c0.193,1.918,0.775,3.799,1.676,5.502c2.513,4.785,7.432,8.017,12.68,9.032c4.762,0.946,9.874,0.166,14.078-2.283
			C426.948,615.748,430.378,610.632,430.369,604.861z"/>
	</g>
	<g id="POLYLINE_00000137095262016182605170000015122121899401088936_">
		
			<path fill="none" stroke="#F368E0" stroke-width="2.75" stroke-linecap="round" stroke-linejoin="round" stroke-miterlimit="10" d="
			M410.886,582.612c-4.735,0.218-9.565,1.395-13.497,4.129c-1.709,1.186-3.19,2.698-4.408,4.382
			c-1.67,2.307-2.901,4.925-3.734,7.644c-1.315,4.262-1.564,8.862-0.624,13.228c0.692,3.139,1.912,6.274,4.09,8.686
			c1.322,1.465,3.004,2.576,4.81,3.353c3.051,1.309,6.408,1.759,9.693,2.042c4.189,0.326,8.47,0.324,12.633-0.274
			c4.11-0.621,8.425-1.879,11.372-4.97c1.557-1.643,2.536-3.75,3.158-5.906c0.642-2.234,0.94-4.573,1.079-6.889
			c0.152-2.58,0.065-5.206-0.466-7.742c-0.886-4.324-3.157-8.319-6.276-11.425c-1.598-1.588-3.444-2.941-5.47-3.932
			C419.433,583.059,415.103,582.426,410.886,582.612z"/>
	</g>
	<g id="POLYLINE_00000102527643564311004060000008410639956766283960_">
		
			<path fill="none" stroke="#F368E0" stroke-width="2.75" stroke-linecap="round" stroke-linejoin="round" stroke-miterlimit="10" d="
			M426.669,604.861c0.018-4.928-2.536-9.647-6.672-12.328c-7.562-4.926-17.717-1.974-21.461,6.237c-1.753,3.812-1.753,8.37,0,12.181
			c3.744,8.211,13.9,11.163,21.461,6.237C424.133,614.509,426.687,609.789,426.669,604.861z"/>
	</g>
	<g id="POLYLINE_00000163068667806739796090000017741235466930485658_">
		
			<path fill="none" stroke="#F368E0" stroke-width="2.75" stroke-linecap="round" stroke-linejoin="round" stroke-miterlimit="10" d="
			M415.662,604.861c0.002-0.82-0.279-1.638-0.784-2.284c-0.502-0.648-1.226-1.121-2.022-1.321c-2.334-0.59-4.609,1.165-4.631,3.572
			c-0.019,2.434,2.271,4.233,4.631,3.637c0.795-0.2,1.519-0.672,2.022-1.321C415.383,606.499,415.664,605.681,415.662,604.861z"/>
	</g>
	<g id="POLYLINE_00000055695429132830823010000001024409126805024404_">
		
			<path fill="none" stroke="#F368E0" stroke-width="2.75" stroke-linecap="round" stroke-linejoin="round" stroke-miterlimit="10" d="
			M380.388,579.866c0.001,0.029-0.001,6.076,0,6.102c0.001,0.071,0.008,0.145,0.019,0.215c0.037,0.24,0.132,0.471,0.273,0.668
			c0.203,0.286,0.506,0.499,0.844,0.593c0.129,0.037,0.265,0.057,0.399,0.059c0.016,0.005,3.873-0.003,3.894,0
			c0.062,0,0.127-0.004,0.188-0.011c0.348-0.042,0.68-0.205,0.926-0.456c0.214-0.218,0.363-0.5,0.42-0.8
			c0.017-0.087,0.026-0.179,0.028-0.268c0.016-0.031-0.011-5.013,0-5.044"/>
	</g>
	<g id="POLYLINE_00000072279578533829062580000014690571893827189649_">
		
			<path fill="none" stroke="#F368E0" stroke-width="2.75" stroke-linecap="round" stroke-linejoin="round" stroke-miterlimit="10" d="
			M311.253,569.398c0.001,0.029-0.001,5.893,0,5.92c0.001,0.071,0.008,0.145,0.019,0.215c0.037,0.24,0.132,0.471,0.273,0.668
			c0.203,0.286,0.506,0.498,0.844,0.593c0.129,0.037,0.265,0.057,0.399,0.059c0.016,0.005,3.873-0.003,3.894,0
			c0.062,0,0.127-0.004,0.188-0.011c0.339-0.04,0.663-0.197,0.906-0.437c0.218-0.214,0.371-0.494,0.434-0.793
			c0.018-0.087,0.029-0.178,0.032-0.267c-0.001-0.013,0.002-0.041,0.001-0.054v-4.834"/>
	</g>
	<g id="POLYLINE_00000092440708864743816060000007294315449337627266_">
		
			<path fill="none" stroke="#F368E0" stroke-width="2.75" stroke-linecap="round" stroke-linejoin="round" stroke-miterlimit="10" d="
			M536.496,566.496c-0.058,0.08-0.172,0.101-0.255,0.045c-0.04-0.027-0.069-0.07-0.079-0.118c-0.002-0.012-0.004-0.024-0.004-0.037
			v-7.142c0-0.044,0.005-0.09,0.014-0.134c0.036-0.176,0.149-0.335,0.304-0.426c0.032-0.019,0.066-0.036,0.101-0.049
			c0.01-0.004,1.492-0.539,1.503-0.542c0.039-0.014,0.08-0.025,0.121-0.031c0.172-0.027,0.354,0.018,0.492,0.124
			c0.121,0.091,0.208,0.225,0.242,0.373c0.01,0.044,0.016,0.09,0.016,0.135c0.001,0.027-0.001,4.212,0,4.239
			c-0.001,0.078-0.017,0.155-0.045,0.227c-0.018,0.044-0.04,0.088-0.067,0.127C538.838,563.311,536.501,566.474,536.496,566.496z"/>
	</g>
	<g id="POLYLINE_00000182504695511302638650000011188379764080753337_">
		
			<path fill="none" stroke="#F368E0" stroke-width="2.75" stroke-linecap="round" stroke-linejoin="round" stroke-miterlimit="10" d="
			M534.814,567.023c0.001,0.258-0.119,0.512-0.319,0.675c-0.195,0.161-0.461,0.231-0.71,0.185c-0.055-0.01-0.11-0.026-0.163-0.046
			l-4.764-1.86c-0.037-0.015-0.075-0.032-0.11-0.052c-0.159-0.089-0.289-0.229-0.365-0.394c-0.042-0.092-0.069-0.191-0.078-0.292
			c-0.002-0.024-0.003-0.051-0.003-0.076c0,0,0-5.762,0-5.762c0-0.151,0.04-0.302,0.115-0.432c0.126-0.224,0.355-0.385,0.609-0.428
			c0.049-0.008,0.1-0.013,0.15-0.013h4.764c0.034,0,0.071,0.002,0.105,0.006c0.16,0.019,0.314,0.084,0.439,0.184
			c0.158,0.125,0.269,0.306,0.31,0.503c0.011,0.054,0.018,0.11,0.019,0.165C534.823,559.391,534.808,567.015,534.814,567.023z"/>
	</g>
	<g id="POLYLINE_00000109021701113927588650000018111212672378222724_">
		
			<path fill="none" stroke="#F368E0" stroke-width="2.75" stroke-linecap="round" stroke-linejoin="round" stroke-miterlimit="10" d="
			M516.65,567.559c-0.34,0.056-0.699-0.108-0.877-0.403c-0.063-0.101-0.104-0.215-0.122-0.333c-0.005-0.038-0.009-0.077-0.009-0.115
			c-0.008-0.006,0.006-7.297,0-7.305c0-0.05,0.004-0.101,0.013-0.15c0.013-0.074,0.036-0.147,0.067-0.215
			c0.115-0.253,0.356-0.442,0.628-0.492c0.049-0.009,0.1-0.015,0.15-0.016c0.059,0.001,9.427-0.002,9.484,0.001
			c0.11,0.006,0.22,0.033,0.32,0.079c0.234,0.106,0.414,0.321,0.479,0.57c0.018,0.068,0.028,0.139,0.029,0.209
			c0.013,0.007-0.009,5.826,0,5.836c0,0.024-0.001,0.051-0.003,0.075c-0.014,0.16-0.073,0.317-0.169,0.445
			c-0.105,0.141-0.253,0.25-0.42,0.306c-0.042,0.014-0.087,0.026-0.131,0.034C526.087,566.095,516.656,567.55,516.65,567.559z"/>
	</g>
	<g id="POLYLINE_00000001654605825451880220000017976884284056854421_">
		
			<path fill="none" stroke="#F368E0" stroke-width="2.75" stroke-linecap="round" stroke-linejoin="round" stroke-miterlimit="10" d="
			M492.31,566.496c0.058,0.08,0.172,0.101,0.255,0.045c0.04-0.027,0.069-0.07,0.079-0.118c0.002-0.012,0.004-0.024,0.004-0.037
			v-7.142c0-0.044-0.005-0.09-0.014-0.134c-0.036-0.176-0.149-0.335-0.304-0.426c-0.032-0.019-0.066-0.036-0.101-0.049
			c-0.01-0.004-1.492-0.539-1.503-0.542c-0.039-0.014-0.08-0.025-0.121-0.031c-0.172-0.027-0.354,0.018-0.492,0.124
			c-0.121,0.091-0.208,0.225-0.242,0.373c-0.01,0.044-0.016,0.09-0.017,0.135c-0.001,0.027,0.001,4.212,0,4.239
			c0.001,0.078,0.017,0.155,0.045,0.227c0.018,0.044,0.04,0.088,0.067,0.127C489.967,563.311,492.304,566.474,492.31,566.496z"/>
	</g>
	<g id="POLYLINE_00000033340422972178282210000001995976569558659259_">
		
			<path fill="none" stroke="#F368E0" stroke-width="2.75" stroke-linecap="round" stroke-linejoin="round" stroke-miterlimit="10" d="
			M493.991,567.023c-0.001,0.258,0.119,0.512,0.319,0.675c0.195,0.161,0.461,0.231,0.71,0.185c0.055-0.01,0.11-0.026,0.163-0.046
			l4.764-1.86c0.037-0.015,0.075-0.032,0.11-0.052c0.159-0.089,0.289-0.229,0.365-0.394c0.042-0.092,0.069-0.191,0.078-0.292
			c0.002-0.024,0.003-0.051,0.003-0.076c0,0,0-5.762,0-5.762c0-0.151-0.04-0.302-0.115-0.432c-0.126-0.224-0.355-0.385-0.609-0.428
			c-0.049-0.008-0.1-0.013-0.15-0.013h-4.764c-0.034,0-0.071,0.002-0.105,0.006c-0.16,0.019-0.314,0.084-0.439,0.184
			c-0.158,0.125-0.269,0.306-0.31,0.503c-0.011,0.054-0.018,0.11-0.019,0.165C493.982,559.391,493.997,567.015,493.991,567.023z"/>
	</g>
	<g id="POLYLINE_00000129163583553147749380000013156027284544824476_">
		
			<path fill="none" stroke="#F368E0" stroke-width="2.75" stroke-linecap="round" stroke-linejoin="round" stroke-miterlimit="10" d="
			M512.155,567.559c0.34,0.056,0.699-0.108,0.877-0.403c0.063-0.101,0.104-0.215,0.122-0.333c0.005-0.038,0.009-0.077,0.009-0.115
			c0.008-0.006-0.006-7.297,0-7.305c0-0.05-0.004-0.101-0.013-0.15c-0.013-0.074-0.036-0.147-0.067-0.215
			c-0.115-0.253-0.356-0.442-0.628-0.492c-0.049-0.009-0.1-0.015-0.15-0.016c-0.059,0.001-9.427-0.002-9.484,0.001
			c-0.11,0.006-0.22,0.033-0.32,0.079c-0.234,0.106-0.414,0.321-0.479,0.57c-0.018,0.068-0.028,0.139-0.029,0.209
			c-0.013,0.007,0.009,5.826,0,5.836c0,0.024,0.001,0.051,0.003,0.075c0.014,0.16,0.073,0.317,0.169,0.445
			c0.105,0.141,0.253,0.25,0.42,0.306c0.042,0.014,0.087,0.026,0.131,0.034C502.718,566.095,512.149,567.55,512.155,567.559z"/>
	</g>
	<g id="POLYLINE_00000080924499263149834910000012408678612282523557_">
		
			<path fill="none" stroke="#F368E0" stroke-width="2.75" stroke-linecap="round" stroke-linejoin="round" stroke-miterlimit="10" d="
			M478.786,543.648c-0.011-0.008-118.99-25.556-119.008-25.579c-0.101-0.039-0.189-0.109-0.249-0.198
			c-0.055-0.081-0.087-0.179-0.09-0.277c-0.013-0.042,0.137-0.838,0.146-0.902c0.024-0.138,0.105-0.265,0.221-0.345
			c0.083-0.057,0.182-0.09,0.282-0.093c0.103-0.016,122.753,21.43,122.863,21.438"/>
	</g>
	<g id="POLYLINE_00000145762298716271575870000005380123350485375656_">
		
			<path fill="none" stroke="#F368E0" stroke-width="2.75" stroke-linecap="round" stroke-linejoin="round" stroke-miterlimit="10" d="
			M473.261,576.821v23.758c0.001,0.145,0.005,0.34,0.013,0.485c0.028,0.533,0.104,1.079,0.222,1.6
			c0.167,0.732,0.427,1.454,0.764,2.125c1.084,2.174,3.049,3.885,5.352,4.659c0.711,0.242,1.462,0.4,2.21,0.465
			c0.201,0.017,0.444,0.03,0.646,0.033c0,0,0.162,0.001,0.162,0.001h17.897"/>
	</g>
	<g id="POLYLINE_00000090280095253957603160000008862640518802702218_">
		
			<path fill="none" stroke="#F368E0" stroke-width="2.75" stroke-linecap="round" stroke-linejoin="round" stroke-miterlimit="10" d="
			M506.891,523.267c-13.765,2.661-25.038,12.474-30.57,25.228c-4.75,10.828-5.234,23.432-1.378,34.605
			c3.894,11.448,12.358,21.252,23.5,26.123c10.141,4.486,21.776,4.486,31.918,0c11.142-4.871,19.605-14.674,23.5-26.123
			c3.856-11.173,3.373-23.777-1.378-34.605c-5.534-12.755-16.802-22.564-30.57-25.228"/>
	</g>
	<g id="POLYLINE_00000132071350181900417690000000634569703050286768_">
		
			<path fill="none" stroke="#F368E0" stroke-width="2.75" stroke-linecap="round" stroke-linejoin="round" stroke-miterlimit="10" d="
			M521.93,523.689l-5.086-137.103c-0.063-0.809-0.076-2.106-0.249-2.877c-0.101-0.33-0.291-0.647-0.582-0.842
			c-0.47-0.314-1.067-0.292-1.61-0.297c-0.543,0.005-1.14-0.018-1.61,0.297c-0.29,0.196-0.481,0.512-0.582,0.842
			c-0.174,0.772-0.186,2.072-0.249,2.877c-0.001,0.233-5.102,137.12-5.087,137.334c0.008,0.178,0.027,0.363,0.113,0.521
			c0.085,0.157,0.239,0.235,0.408,0.269c0.352,0.068,0.78,0.057,1.14,0.066c2.924,0.002,8.809,0.002,11.732,0
			c0.3-0.006,0.694-0.004,0.992-0.042c0.146-0.019,0.299-0.047,0.42-0.136c0.099-0.072,0.162-0.184,0.196-0.3
			C521.934,524.102,521.936,523.892,521.93,523.689z"/>
	</g>
	<g id="POLYLINE_00000018221010708673251280000009404263973616516776_">
		
			<path fill="none" stroke="#F368E0" stroke-width="2.75" stroke-linecap="round" stroke-linejoin="round" stroke-miterlimit="10" d="
			M514.403,571.112c-4.644-0.012-9.393,1.961-12.268,5.68c-1.252,1.614-2.111,3.546-2.4,5.572c-0.061,0.429-0.1,0.877-0.111,1.31
			c-0.009,0.279-0.009,9.64,0.005,9.866c0.044,1.082,0.275,2.16,0.666,3.17c1.108,2.875,3.466,5.135,6.178,6.521
			c4.885,2.491,10.974,2.491,15.859,0c2.713-1.387,5.07-3.646,6.178-6.521c0.391-1.01,0.622-2.088,0.666-3.17
			c0.005-0.228,0.017-9.585,0.005-9.866c-0.011-0.433-0.049-0.881-0.111-1.31c-0.289-2.026-1.147-3.958-2.4-5.572
			C523.796,573.073,519.047,571.099,514.403,571.112z"/>
	</g>
	<g id="POLYLINE_00000099639197441009505630000015275460216693385387_">
		
			<path fill="none" stroke="#F368E0" stroke-width="2.75" stroke-linecap="round" stroke-linejoin="round" stroke-miterlimit="10" d="
			M149.295,232.141c-7.867-0.067-15.894-1.149-23.65-2.433c-6.076-1.061-15.341-2.665-21.352-4.028
			c-1.247-0.311-2.486-0.739-3.64-1.308c-0.968-0.47-1.984-1.058-2.913-1.603c-7.061-4.269-18.488-11.794-25.543-16.269
			l-0.693-0.468l-0.28-0.194l-0.24-0.171l-0.106-0.077l-0.097-0.072l-0.088-0.067l-0.08-0.062l-0.072-0.058l-0.033-0.028
			l-0.031-0.027l-0.03-0.026c-0.092-0.084-0.193-0.172-0.259-0.28c-0.02-0.034-0.037-0.071-0.044-0.11
			c-0.009-0.048-0.005-0.098,0.011-0.144c0.029-0.078,0.095-0.134,0.166-0.174c0.127-0.072,0.274-0.111,0.416-0.145
			c0.773-0.166,1.619-0.184,2.408-0.223c4.569-0.074,15.808-0.437,20.217-0.226c2.027,0.087,4.088,0.332,6.078,0.723
			c3.762,0.734,8.067,1.919,11.783,2.911c12.449,3.61,43.625,12.059,55.563,15.915c1.007,0.367,2.081,0.762,3.017,1.294
			c0.379,0.221,0.759,0.469,1.041,0.81c0.131,0.16,0.236,0.347,0.277,0.552c0.035,0.177,0.02,0.362-0.033,0.534
			c-0.138,0.43-0.441,0.787-0.754,1.104c-0.627,0.615-1.379,1.095-2.151,1.507c-2.415,1.268-5.125,1.877-7.809,2.257
			C156.73,232.058,152.971,232.173,149.295,232.141z"/>
	</g>
	<g id="POLYLINE_00000152953585054914198340000007696716714459473078_">
		
			<path fill="none" stroke="#F368E0" stroke-width="2.75" stroke-linecap="round" stroke-linejoin="round" stroke-miterlimit="10" d="
			M102.292,205.284c-0.016-0.004-33.407-134.466-33.42-134.481c-0.035-0.157-0.07-0.325-0.088-0.485
			c-0.043-0.368-0.037-0.77,0.167-1.092c0.231-0.362,0.678-0.466,1.083-0.462c0.12,0.001,33.14-0.002,33.25,0.001
			c0.192,0.005,0.406,0.014,0.596,0.033c0.642,0.061,1.283,0.206,1.891,0.42c0.914,0.321,1.774,0.798,2.561,1.361
			c0.608,0.435,1.184,0.928,1.72,1.448c0.17,0.154,0.406,0.413,0.569,0.576c0.255,0.572,99.539,105.01,99.812,105.486
			c1.933,1.867,4.363,3.144,6.818,4.185c0.884,0.369,1.863,0.738,2.771,1.047c0,0,0.496,0.167,0.496,0.167l0.506,0.164l0.515,0.162
			l0.525,0.16l86.02,25.788"/>
	</g>
	<g id="POLYLINE_00000078753568714685413460000007755131361296523954_">
		
			<path fill="none" stroke="#F368E0" stroke-width="2.75" stroke-linecap="round" stroke-linejoin="round" stroke-miterlimit="10" d="
			M867.221,235.668c-0.078-0.468,0.185-0.95,0.622-1.136c0.106-0.046,0.221-0.075,0.336-0.085c0.03-0.002,0.062-0.004,0.092-0.004
			l6.648,0.001c0.351-0.004,0.696,0.18,0.888,0.475c0.016,0.025,0.033,0.053,0.047,0.079c0.012,0.022,4.906,9.039,4.916,9.06
			c0.026,0.053,0.046,0.109,0.058,0.166c0.02,0.093,0.021,0.191,0.002,0.285c-0.039,0.201-0.17,0.382-0.35,0.481
			c-0.176,0.099-0.395,0.116-0.585,0.046c-0.067-0.037-11.486-4.19-11.541-4.225c-0.078-0.036-0.15-0.087-0.21-0.148
			c-0.08-0.082-0.14-0.184-0.172-0.294c-0.008-0.029-0.016-0.059-0.02-0.089C867.952,240.28,867.221,235.668,867.221,235.668z"/>
	</g>
	<g id="POLYLINE_00000088835030224228600710000008614014748933792952_">
		
			<path fill="none" stroke="#F368E0" stroke-width="2.75" stroke-linecap="round" stroke-linejoin="round" stroke-miterlimit="10" d="
			M882.587,244.493c0.131,0.244,0.362,0.431,0.628,0.509c0.265,0.08,0.561,0.049,0.805-0.083l5.5-2.969
			c0.019-0.011,0.044-0.025,0.063-0.037c0.093-0.059,0.177-0.133,0.247-0.217c0.272-0.32,0.323-0.801,0.122-1.171
			c-0.043-0.081-0.097-0.157-0.159-0.224c-0.057-0.048-5.374-5.628-5.426-5.671c-0.052-0.051-0.111-0.097-0.172-0.136
			c-0.092-0.059-0.195-0.103-0.301-0.131c-0.088-0.023-0.181-0.034-0.272-0.034c-0.018-0.012-4.722,0.09-4.742,0.082
			c-0.036,0.001-0.075,0.003-0.11,0.007c-0.475,0.052-0.868,0.439-0.926,0.914c-0.017,0.128-0.01,0.259,0.02,0.384
			c0.019,0.077,0.046,0.154,0.082,0.225C877.939,235.959,882.586,244.469,882.587,244.493z"/>
	</g>
	<g id="POLYLINE_00000067924439859349270060000006243512454481601677_">
		
			<path fill="none" stroke="#F368E0" stroke-width="2.75" stroke-linecap="round" stroke-linejoin="round" stroke-miterlimit="10" d="
			M898.578,241.459h-5.039c-0.079,0-0.164-0.004-0.243-0.013c-0.268-0.028-0.533-0.102-0.776-0.219
			c-0.207-0.099-0.4-0.229-0.57-0.384c-0.038-0.035-0.081-0.076-0.116-0.113l-5.415-5.66c-0.016-0.017-0.032-0.036-0.046-0.056
			c-0.106-0.148-0.119-0.354-0.032-0.514c0.059-0.111,0.161-0.197,0.281-0.235c0.036-0.012,0.073-0.019,0.11-0.022
			c0.025-0.014,3.461-0.124,3.487-0.134"/>
	</g>
	<g id="POLYLINE_00000158723639816020822130000017119339306428547246_">
		
			<line fill="none" stroke="#F368E0" stroke-width="2.75" stroke-linecap="round" stroke-linejoin="round" stroke-miterlimit="10" x1="566.862" y1="276.007" x2="566.862" y2="311.171"/>
	</g>
	<g id="POLYLINE_00000062897643163007295550000012500223247388895879_">
		
			<path fill="none" stroke="#F368E0" stroke-width="2.75" stroke-linecap="round" stroke-linejoin="round" stroke-miterlimit="10" d="
			M566.862,279.857c-8.039,2.791-16.498,5.467-24.814,7.27v12.345c8.544,1.221,16.882,3.966,24.814,7.319"/>
	</g>
	<g id="POLYLINE_00000149348078955676978590000013696661109205878961_">
		
			<path fill="none" stroke="#F368E0" stroke-width="2.75" stroke-linecap="round" stroke-linejoin="round" stroke-miterlimit="10" d="
			M488.01,258.482c-9.365,2.805-19.188,4.156-28.935,4.661c-5.499,0.295-11.161,0.396-16.652-0.056
			c-5.955-0.468-11.945-1.549-17.756-2.928c1.569-0.849,3.289-1.427,5.001-1.911c2.913-0.806,5.983-1.334,8.979-1.725
			c7.236-0.907,14.739-1.115,22.026-0.916c9.221,0.319,19.222,1.491,28.401,2.551L488.01,258.482z"/>
	</g>
	<g id="POLYLINE_00000118393818023130997260000009720460269792310177_">
		
			<path fill="none" stroke="#F368E0" stroke-width="2.75" stroke-linecap="round" stroke-linejoin="round" stroke-miterlimit="10" d="
			M468.771,262.344c11.688-0.323,24.884,1.206,36.551,2.446c-9.716,2.858-19.898,4.215-29.999,4.707
			c-5.46,0.271-11.207,0.377-16.652-0.053c-5.937-0.439-11.946-1.466-17.756-2.765c1.461-0.748,3.048-1.267,4.626-1.704
			c2.77-0.753,5.694-1.252,8.539-1.627"/>
	</g>
	<g id="POLYLINE_00000136401870469883194460000012605051954306687897_">
		
			<polyline fill="none" stroke="#F368E0" stroke-width="2.75" stroke-linecap="round" stroke-linejoin="round" stroke-miterlimit="10" points="
			484.868,268.76 496.571,278.053 543.87,286.721 		"/>
	</g>
	<g id="POLYLINE_00000132057830566506661440000009806268174447175349_">
		
			<path fill="none" stroke="#F368E0" stroke-width="2.75" stroke-linecap="round" stroke-linejoin="round" stroke-miterlimit="10" d="
			M492.321,274.679c-4.581,0.594-9.543,0.951-14.165,1.151c-4.545,0.195-9.295,0.235-13.833-0.07
			c-6.267-0.402-12.596-1.462-18.724-2.834c1.577-0.806,3.294-1.349,5.001-1.805c2.888-0.755,5.923-1.25,8.884-1.617"/>
	</g>
	<g id="POLYLINE_00000162346926944010998920000010735855679916121508_">
		
			<path fill="none" stroke="#F368E0" stroke-width="2.75" stroke-linecap="round" stroke-linejoin="round" stroke-miterlimit="10" d="
			M445.931,255.84l-36.784-15.498c-0.068-0.036-0.156-0.063-0.223-0.1c-0.146-0.071-0.299-0.149-0.438-0.232
			c-0.339-0.199-0.66-0.436-0.95-0.702c-0.525-0.481-0.958-1.065-1.266-1.707c-0.155-0.324-0.281-0.668-0.371-1.016
			c-0.042-0.096-10.709-50.224-10.751-50.377c-0.058-0.265,0.007-0.554,0.173-0.77c0.122-0.16,0.296-0.28,0.49-0.335
			c0.051-0.015,0.105-0.026,0.158-0.031c0.273-0.023,0.596-0.042,0.87-0.047c1.715-0.026,3.511,0.231,5.034,1.057
			c0.469,0.261,0.888,0.611,1.233,1.021c0.204,0.238,0.391,0.504,0.564,0.767c0.281,0.425,0.565,0.939,0.814,1.386
			c0,0,0.479,0.883,0.479,0.883l19.814,37.718c0.785,1.44,1.644,3.007,2.571,4.335c0.668,0.957,1.471,1.801,2.48,2.401
			c1.239,0.755,2.636,1.23,4.027,1.621c1.487,0.414,3.227,0.766,4.748,1.061c5.27,0.951,12.675,2.366,17.834,3.547
			c13.191,3.038,87.325,21.189,99.818,24.389c1.404,0.39,2.997,0.785,4.353,1.323c0.293,0.123,0.592,0.263,0.851,0.451
			c0.303,0.221,0.567,0.499,0.778,0.809c0.322,0.478,0.52,1.069,0.428,1.647c-0.051,0.321-0.2,0.626-0.427,0.86
			c-0.219,0.228-0.498,0.39-0.787,0.515c-0.524,0.222-1.09,0.343-1.649,0.439c-1.077,0.181-2.257,0.25-3.35,0.304
			c-5.558,0.24-17.723-0.186-23.447-0.272c-14.621-0.414-31.289-0.831-45.715-2.809"/>
	</g>
	<g id="POLYLINE_00000129924268254178941460000008545692335701764515_">
		
			<path fill="none" stroke="#F368E0" stroke-width="2.75" stroke-linecap="round" stroke-linejoin="round" stroke-miterlimit="10" d="
			M566.862,311.171c21.458,1.982,43.388,2.636,64.811-0.024c1.568-0.218,3.283-0.439,4.819-0.805
			c0.687-0.166,1.384-0.354,2.017-0.677c0.331-0.167,0.634-0.395,0.92-0.63c0.394-0.324,0.764-0.686,1.058-1.105
			c0.409-0.576,0.668-1.247,0.825-1.932c0.204-0.89,0.27-1.834,0.318-2.745c0.082-1.416,0.053-3.541,0.065-4.982
			c-0.016-1.429,0.026-19.482-0.069-20.321c-0.031-0.542-0.097-1.095-0.286-1.607c-0.347-0.974-1.15-1.695-1.993-2.25
			c-1.901-1.224-4.06-2.052-6.189-2.789c-1.79-0.593-3.657-1.121-5.519-1.425c-1.746-0.291-3.565-0.401-5.334-0.448
			c-18.469-0.235-37.312,3.293-55.441,6.575"/>
	</g>
	<g id="POLYLINE_00000039099735385336344180000005413068012361238674_">
		
			<path fill="none" stroke="#F368E0" stroke-width="2.75" stroke-linecap="round" stroke-linejoin="round" stroke-miterlimit="10" d="
			M542.048,297.521c-26.198-0.117-139.779,0.388-163.335-0.473c-17.889-0.542-37.171-1.669-54.966-3.462
			c-35.287-3.524-71.469-10.419-106.048-18.268c-26.39-6.102-55.969-13.8-81.876-21.694c-6.508-2.033-14.504-4.577-20.879-6.944
			c-2.768-1.039-5.908-2.241-8.582-3.511c-1.393-0.667-2.842-1.411-4.127-2.276c-0.076-3.628-1.67-6.158-5.367-6.866
			c-1.086-3.174-2.128-6.443-2.46-9.796c-0.104-1.132-0.154-2.302,0.135-3.412"/>
	</g>
	<g id="POLYLINE_00000102543999951048552400000008720784144069836477_">
		
			<path fill="none" stroke="#F368E0" stroke-width="2.75" stroke-linecap="round" stroke-linejoin="round" stroke-miterlimit="10" d="
			M529.846,258.609c21.13-0.65,46.958-2.497,67.849-0.633c5.685,0.561,11.541,1.292,17.07,2.745
			c6.661,1.745,13.382,4.771,17.679,10.351"/>
	</g>
	<g id="POLYLINE_00000069357677261085399060000004286144730883099026_">
		
			<path fill="none" stroke="#F368E0" stroke-width="2.75" stroke-linecap="round" stroke-linejoin="round" stroke-miterlimit="10" d="
			M557.988,265.686c12.069,0.918,34.535,3.26,46.803,4.516"/>
	</g>
	<g id="POLYLINE_00000177474285072957406340000012401791755948687795_">
		
			<path fill="none" stroke="#F368E0" stroke-width="2.75" stroke-linecap="round" stroke-linejoin="round" stroke-miterlimit="10" d="
			M447.352,273.31c-2.298,1.254-4.589,2.635-6.572,4.354c-1.032,0.901-1.987,1.917-2.715,3.082c-0.583,0.929-1.009,1.961-1.27,3.026
			c-0.847,3.413,0.585,5.923,3.415,7.791c1.975,1.295,4.22,2.155,6.464,2.857c8.7,2.622,18.014,2.861,27.039,3.05l68.335,0.051"/>
	</g>
	<g id="POLYLINE_00000072991972207183880790000001542487813030110651_">
		
			<path fill="none" stroke="#F368E0" stroke-width="2.75" stroke-linecap="round" stroke-linejoin="round" stroke-miterlimit="10" d="
			M415.246,209.762h370.61l2.947,0.019c1.569,0.025,4.659,0.097,6.224,0.156c7.842,0.292,16.131,0.928,23.929,1.816
			c9.009,1.036,18.377,2.521,27.207,4.595c11.204,2.668,22.441,6.222,32.872,11.135c3.649,1.746,7.262,3.722,10.522,6.127
			c2.13,1.538,4.129,3.475,5.985,5.333c1.117,1.08,2.315,2.108,3.65,2.907c2.467,1.483,7.082,3.319,9.75,4.545
			c5.314,2.414,10.7,5.057,15.62,8.205c2.185,1.446,4.431,3.074,5.66,5.455c0.439,0.86,0.759,1.79,0.928,2.74
			c0.145,0.838,0.111,1.71-0.122,2.529c-0.418,1.476-1.367,2.739-2.414,3.833c-1.809,1.861-3.987,3.355-6.183,4.721
			c-6.581,3.993-13.752,7.076-20.942,9.791c-10.619,3.927-21.735,7.055-32.884,9.035c-7.333,1.3-15.006,2.17-22.428,2.787
			c-8.978,0.737-19.753,1.232-28.768,1.51c-28.536,0.929-145.253,0.384-175.715,0.52"/>
	</g>
	<g id="POLYLINE_00000116952921787879755220000005996719169221159342_">
		
			<path fill="none" stroke="#F368E0" stroke-width="2.75" stroke-linecap="round" stroke-linejoin="round" stroke-miterlimit="10" d="
			M131.542,213.268c81.72-4.463,186.475-3.228,268.631-3.506"/>
	</g>
</g>
<g id="_x32_D_x24_AG-OUTLINE">
	<g id="POLYLINE_00000165948261884787558000000001043138287752055449_">
		
			<path fill="none" stroke="#F368E0" stroke-width="3.5" stroke-linecap="round" stroke-linejoin="round" stroke-miterlimit="10" d="
			M599.906,589.055c-2.612,2.665-4.619,5.954-5.668,9.542c-0.936,3.178-1.09,6.545-0.864,9.835c0.154,2.248,0.465,4.516,1.109,6.68
			c0.487,1.625,1.175,3.213,2.172,4.593c2.445,3.392,6.58,5.001,10.551,5.794c5.25,1.005,10.693,0.958,15.995,0.425
			c4.463-0.482,9.23-1.532,12.499-4.828c1.95-1.955,3.179-4.517,3.978-7.133c1.385-4.587,1.41-9.558,0.171-14.18
			c-1.143-4.251-3.219-8.358-6.433-11.417c-2.551-2.411-5.818-3.965-9.195-4.835l17.207-2.605v5.017
			c0.002,0.014-0.001,0.04,0.001,0.054c0.003,0.089,0.014,0.18,0.032,0.267c0.062,0.299,0.215,0.579,0.434,0.793
			c0.243,0.24,0.567,0.396,0.906,0.437c0.061,0.007,0.127,0.011,0.188,0.011c0.041-0.004,3.857,0.003,3.894,0
			c0.134-0.002,0.27-0.022,0.399-0.059c0.338-0.095,0.641-0.308,0.844-0.593c0.147-0.204,0.243-0.445,0.277-0.694
			c0.01-0.07,0.015-0.144,0.015-0.215v-6.075l62.144-9.409v4.834c0.002,0.014-0.001,0.04,0.001,0.054
			c0.003,0.089,0.014,0.18,0.032,0.267c0.062,0.299,0.215,0.579,0.434,0.793c0.243,0.24,0.567,0.396,0.906,0.437
			c0.061,0.007,0.127,0.011,0.188,0.011c0.041-0.004,3.857,0.003,3.894,0c0.134-0.002,0.27-0.022,0.399-0.059
			c0.338-0.095,0.64-0.308,0.844-0.593c0.146-0.204,0.243-0.445,0.277-0.694c0.01-0.07,0.015-0.144,0.015-0.215v-5.893
			c0.557-0.104,161.194-24.368,161.698-24.502c0.642-0.143,1.273-0.367,1.86-0.66c0.799-0.398,1.536-0.932,2.163-1.567
			c0.66-0.668,1.207-1.457,1.6-2.31c0.255-0.553,0.451-1.143,0.576-1.739c0.046-0.221,0.088-0.472,0.115-0.696
			c0.014-0.124,0.032-0.297,0.04-0.422c0,0,3.15-45.937,3.15-45.937h-0.778l-5.195,46.495c-0.017,0.145-0.041,0.307-0.07,0.45
			c-0.089,0.445-0.238,0.884-0.439,1.291c-0.281,0.572-0.67,1.094-1.136,1.528c-0.444,0.413-0.963,0.751-1.521,0.989
			c-0.362,0.154-0.746,0.269-1.133,0.339c-0.267,0.064-132.923,16.829-133.208,16.879c-0.171,0.025-189.543,17.264-189.73,17.284
			c2.223-11.238,0.286-23.283-5.526-33.173c0.011-0.008,118.99-25.556,119.008-25.579c0.101-0.039,0.189-0.109,0.249-0.198
			c0.055-0.081,0.087-0.179,0.09-0.277c0.013-0.042-0.137-0.838-0.146-0.902c-0.024-0.138-0.105-0.265-0.221-0.345
			c-0.083-0.057-0.182-0.09-0.282-0.093c-0.103-0.016-122.753,21.43-122.863,21.438c-6.037-7.334-14.585-12.632-23.94-14.425
			l-5.071-136.689c-0.064-0.81-0.075-2.097-0.249-2.87c-0.101-0.33-0.291-0.646-0.582-0.842c-0.47-0.314-1.067-0.292-1.61-0.297
			c-0.543,0.005-1.14-0.018-1.61,0.297c-0.29,0.196-0.481,0.512-0.582,0.842c-0.174,0.773-0.186,2.064-0.249,2.87l-5.071,136.689
			c-9.358,1.794-17.901,7.089-23.94,14.425c-0.015,0.003-122.808-21.452-122.835-21.438c-0.107-0.002-0.214,0.029-0.303,0.088
			c-0.12,0.079-0.204,0.208-0.228,0.35c-0.01,0.068-0.159,0.857-0.146,0.902c0.003,0.095,0.033,0.189,0.085,0.269
			c0.057,0.088,0.14,0.158,0.236,0.199c0.066,0.043,118.941,25.558,119.026,25.586c-5.812,9.89-7.748,21.935-5.526,33.173
			c-0.03-0.003-189.67-17.272-189.729-17.284c-0.273-0.042-132.961-16.827-133.208-16.879c-0.387-0.07-0.773-0.185-1.134-0.339
			c-0.558-0.238-1.077-0.576-1.521-0.989c-0.466-0.434-0.855-0.957-1.136-1.528c-0.201-0.407-0.35-0.846-0.439-1.291
			c-0.021-0.112-0.045-0.247-0.059-0.36c-0.065-0.119-5.157-46.469-5.206-46.585h-0.778l3.15,45.937
			c0.009,0.126,0.024,0.296,0.04,0.422c0.028,0.225,0.068,0.475,0.115,0.696c0.125,0.596,0.321,1.186,0.576,1.739
			c0.394,0.853,0.94,1.642,1.6,2.31c0.66,0.669,1.442,1.225,2.29,1.629c0.549,0.262,1.138,0.465,1.732,0.598
			c0.545,0.157,161.112,24.381,161.7,24.502c0.001,0.029-0.001,5.893,0,5.92c0.001,0.071,0.008,0.145,0.019,0.215
			c0.037,0.24,0.132,0.471,0.273,0.668c0.203,0.286,0.506,0.498,0.844,0.593c0.129,0.037,0.265,0.057,0.399,0.059
			c0.016,0.005,3.873-0.003,3.894,0c0.062,0,0.127-0.004,0.188-0.011c0.339-0.04,0.663-0.197,0.906-0.437
			c0.218-0.214,0.371-0.494,0.434-0.793c0.018-0.087,0.029-0.178,0.032-0.267c-0.001-0.013,0.002-0.041,0.001-0.054v-4.834
			l62.144,9.409c0.001,0.029-0.001,6.076,0,6.102c0.001,0.071,0.008,0.145,0.019,0.215c0.037,0.24,0.132,0.471,0.273,0.668
			c0.203,0.286,0.506,0.499,0.844,0.593c0.129,0.037,0.265,0.057,0.399,0.059c0.016,0.005,3.873-0.003,3.894,0
			c0.062,0,0.127-0.004,0.188-0.011c0.348-0.042,0.68-0.205,0.926-0.456c0.214-0.218,0.363-0.5,0.42-0.8
			c0.017-0.087,0.026-0.179,0.028-0.268c0.016-0.031-0.011-5.013,0-5.044l17.207,2.605c-3.378,0.87-6.645,2.423-9.195,4.835
			c-3.214,3.058-5.29,7.165-6.433,11.417c-1.239,4.622-1.215,9.594,0.171,14.18c0.799,2.616,2.027,5.178,3.978,7.133
			c3.269,3.296,8.035,4.345,12.499,4.828c5.303,0.534,10.745,0.581,15.995-0.424c4.029-0.802,8.233-2.455,10.658-5.943
			c0.939-1.345,1.596-2.876,2.065-4.443c0.644-2.163,0.955-4.432,1.109-6.68c0.226-3.29,0.071-6.657-0.864-9.835
			c-1.048-3.588-3.056-6.878-5.668-9.542l44.361,11.524c-0.011,3.929,2.498,7.498,6.198,8.816c0.758,0.273,1.561,0.449,2.363,0.518
			c0.201,0.017,0.444,0.03,0.646,0.033c0,0,0.162,0.001,0.162,0.001h17.577c9.087,3.519,19.305,3.519,28.392,0h17.577l0.162-0.001
			c0.203-0.004,0.444-0.016,0.646-0.033c0.802-0.069,1.605-0.245,2.363-0.518c3.7-1.318,6.21-4.888,6.198-8.816L599.906,589.055z"/>
	</g>
	<g id="POLYLINE_00000132795008364198494880000016158325783344255156_">
		
			<path fill="none" stroke="#F368E0" stroke-width="3.5" stroke-linecap="round" stroke-linejoin="round" stroke-miterlimit="10" d="
			M566.862,306.79c-7.932-3.353-16.269-6.098-24.814-7.319v-1.951c-26.198-0.117-139.779,0.388-163.335-0.473
			c-17.889-0.542-37.171-1.669-54.966-3.462c-35.287-3.524-71.469-10.419-106.048-18.268c-26.39-6.102-55.969-13.8-81.876-21.694
			c-6.508-2.033-14.504-4.577-20.879-6.944c-2.768-1.039-5.908-2.241-8.582-3.511c-1.393-0.667-2.842-1.411-4.127-2.276
			c-0.076-3.628-1.67-6.158-5.367-6.866c-1.086-3.174-2.128-6.443-2.46-9.796c-0.104-1.132-0.154-2.302,0.135-3.412
			c-5.195-3.305-17.065-10.922-22.347-14.318c-0.556-0.382-1.239-0.814-1.749-1.249c-0.082-0.072-0.164-0.148-0.229-0.236
			c-0.039-0.053-0.072-0.114-0.077-0.181c-0.004-0.054,0.005-0.109,0.033-0.156c0.049-0.081,0.134-0.131,0.218-0.17
			c0.135-0.06,0.281-0.096,0.425-0.127c0.496-0.1,1.034-0.136,1.539-0.169c0.38-0.068,14.734-0.306,15.625-0.332
			c1.956-0.019,4.164-0.012,6.114,0.108c2.746,0.145,5.521,0.67,8.197,1.293c-0.016-0.004-33.407-134.466-33.42-134.481
			c-0.035-0.157-0.07-0.325-0.088-0.485c-0.043-0.368-0.037-0.77,0.167-1.092c0.231-0.362,0.678-0.466,1.083-0.462
			c0.12,0.001,33.14-0.002,33.25,0.001c0.192,0.005,0.406,0.014,0.596,0.033c0.642,0.061,1.283,0.206,1.891,0.42
			c0.914,0.321,1.774,0.798,2.561,1.361c0.608,0.435,1.184,0.928,1.72,1.448c0.17,0.154,0.406,0.413,0.569,0.576
			c0.255,0.572,99.539,105.01,99.812,105.486c1.933,1.867,4.363,3.144,6.818,4.185c0.884,0.369,1.863,0.738,2.771,1.047
			c0,0,0.496,0.167,0.496,0.167l0.506,0.164l0.515,0.162l0.525,0.16l86.02,25.788l4.858-0.001h87.232l-5.024-23.552
			c-0.01-0.047-0.017-0.097-0.019-0.146c-0.005-0.092,0.004-0.186,0.026-0.276c0.05-0.207,0.173-0.395,0.342-0.524
			c0.112-0.086,0.245-0.147,0.383-0.176c0.23-0.037,0.518-0.042,0.751-0.055c1.179-0.043,2.378,0.066,3.519,0.372
			c0.686,0.188,1.366,0.443,1.968,0.826c0.548,0.347,0.996,0.833,1.364,1.362c0.7,0.775,10.919,20.665,11.764,22.169h370.61
			l2.947,0.019c1.569,0.025,4.659,0.097,6.224,0.156c7.842,0.292,16.131,0.928,23.929,1.816c9.009,1.036,18.377,2.521,27.207,4.595
			c11.204,2.668,22.441,6.222,32.872,11.135c3.578,1.712,7.121,3.645,10.33,5.985c1.062,0.777,2.138,1.643,3.116,2.523
			c0.902,0.794,2.279,2.192,3.129,3.016c1.096,1.056,2.274,2.059,3.582,2.842c2.468,1.484,7.083,3.32,9.751,4.546
			c3.663,1.644,7.505,3.529,11.021,5.468c2.082,1.162,4.22,2.404,6.151,3.804c1.655,1.208,3.244,2.633,4.164,4.497
			c0.446,0.91,0.774,1.892,0.912,2.898c0.098,0.754,0.046,1.53-0.161,2.262c-0.418,1.476-1.367,2.739-2.414,3.833
			c-1.809,1.861-3.987,3.355-6.183,4.721c-7.491,4.534-15.718,7.927-23.945,10.882c-10.359,3.634-21.167,6.529-32.002,8.307
			c-8.634,1.439-17.823,2.286-26.565,2.889c-43.284,2.805-153.509,1.134-198.224,1.564c-0.022,1.795,0.031,4.415-0.089,6.176
			c-0.049,0.739-0.117,1.501-0.277,2.225c-0.123,0.559-0.308,1.11-0.59,1.61c-0.225,0.401-0.514,0.767-0.843,1.088
			c-0.401,0.38-0.833,0.745-1.319,1.011c-0.65,0.346-1.373,0.54-2.084,0.713c-2.001,0.461-4.207,0.729-6.247,0.98
			c-4.08,0.467-8.703,0.881-12.798,1.125c-16.735,0.999-33.898,0.271-50.584-1.278V306.79z"/>
	</g>
</g>
</svg>
